<svg xmlns="http://www.w3.org/2000/svg" xmlns:xlink="http://www.w3.org/1999/xlink" width="80" zoomAndPan="magnify" viewBox="0 0 60 115.499997" height="154" preserveAspectRatio="xMidYMid meet" version="1.0"><defs><clipPath id="4756213c8e"><path d="M 0.128906 2.121094 L 59.871094 2.121094 L 59.871094 114 L 0.128906 114 Z M 0.128906 2.121094 " clip-rule="nonzero"/></clipPath><clipPath id="df4a29ca5b"><path d="M 6.5 0 L 8.9375 0 L 8.9375 2.4375 L 6.5 2.4375 Z M 6.5 0 " clip-rule="nonzero"/></clipPath><clipPath id="901d339f1a"><path d="M 0.5 0 L 2.9375 0 L 2.9375 2.4375 L 0.5 2.4375 Z M 0.5 0 " clip-rule="nonzero"/></clipPath><clipPath id="15b862dd48"><rect x="0" width="3" y="0" height="3"/></clipPath><clipPath id="1686762cb7"><path d="M 4.519531 19.027344 L 55.261719 19.027344 L 55.261719 112.050781 L 4.519531 112.050781 Z M 4.519531 19.027344 " clip-rule="nonzero"/></clipPath><clipPath id="ad17e75274"><path d="M 0.519531 0.0273438 L 51.261719 0.0273438 L 51.261719 93 L 0.519531 93 Z M 0.519531 0.0273438 " clip-rule="nonzero"/></clipPath><clipPath id="98b6c2393f"><rect x="0" width="52" y="0" height="94"/></clipPath><clipPath id="e01cd7cef4"><path d="M 2.324219 19.003906 L 57.457031 19.003906 L 57.457031 21.121094 L 2.324219 21.121094 Z M 2.324219 19.003906 " clip-rule="nonzero"/></clipPath><clipPath id="2476a83fcb"><path d="M 0.324219 0.00390625 L 55.457031 0.00390625 L 55.457031 2.121094 L 0.324219 2.121094 Z M 0.324219 0.00390625 " clip-rule="nonzero"/></clipPath><clipPath id="71a2fd53e1"><rect x="0" width="56" y="0" height="3"/></clipPath><clipPath id="73b6883404"><path d="M 2.324219 65.453125 L 57.457031 65.453125 L 57.457031 67.574219 L 2.324219 67.574219 Z M 2.324219 65.453125 " clip-rule="nonzero"/></clipPath><clipPath id="192d1afb1e"><path d="M 0.324219 0.453125 L 55.457031 0.453125 L 55.457031 2.574219 L 0.324219 2.574219 Z M 0.324219 0.453125 " clip-rule="nonzero"/></clipPath><clipPath id="1733ff7c16"><rect x="0" width="56" y="0" height="3"/></clipPath><clipPath id="5c60092aa0"><path d="M 2.324219 88.679688 L 57.457031 88.679688 L 57.457031 90.800781 L 2.324219 90.800781 Z M 2.324219 88.679688 " clip-rule="nonzero"/></clipPath><clipPath id="b6754f7dab"><path d="M 0.324219 0.679688 L 55.457031 0.679688 L 55.457031 2.800781 L 0.324219 2.800781 Z M 0.324219 0.679688 " clip-rule="nonzero"/></clipPath><clipPath id="86f511a4b9"><rect x="0" width="56" y="0" height="3"/></clipPath><clipPath id="124ed8b33b"><path d="M 6.582031 25.496094 L 10.808594 25.496094 L 10.808594 31.839844 L 6.582031 31.839844 Z M 6.582031 25.496094 " clip-rule="nonzero"/></clipPath><clipPath id="956b910657"><path d="M 0.582031 0.496094 L 4.808594 0.496094 L 4.808594 6.839844 L 0.582031 6.839844 Z M 0.582031 0.496094 " clip-rule="nonzero"/></clipPath><clipPath id="349fff4008"><rect x="0" width="5" y="0" height="7"/></clipPath><clipPath id="b913348529"><path d="M 12.832031 25.496094 L 21.285156 25.496094 L 21.285156 31.839844 L 12.832031 31.839844 Z M 12.832031 25.496094 " clip-rule="nonzero"/></clipPath><clipPath id="4d12ee7ffa"><path d="M 0.832031 0.496094 L 9.285156 0.496094 L 9.285156 6.839844 L 0.832031 6.839844 Z M 0.832031 0.496094 " clip-rule="nonzero"/></clipPath><clipPath id="ad26e910ef"><rect x="0" width="10" y="0" height="7"/></clipPath><clipPath id="9630f566ea"><path d="M 6.582031 33.941406 L 10.808594 33.941406 L 10.808594 40.285156 L 6.582031 40.285156 Z M 6.582031 33.941406 " clip-rule="nonzero"/></clipPath><clipPath id="64fddcdb4d"><path d="M 0.582031 0.941406 L 4.808594 0.941406 L 4.808594 7.285156 L 0.582031 7.285156 Z M 0.582031 0.941406 " clip-rule="nonzero"/></clipPath><clipPath id="a630d6983c"><rect x="0" width="5" y="0" height="8"/></clipPath><clipPath id="d2eac2ee4e"><path d="M 12.832031 33.941406 L 21.285156 33.941406 L 21.285156 40.285156 L 12.832031 40.285156 Z M 12.832031 33.941406 " clip-rule="nonzero"/></clipPath><clipPath id="44c7acab5b"><path d="M 0.832031 0.941406 L 9.285156 0.941406 L 9.285156 7.285156 L 0.832031 7.285156 Z M 0.832031 0.941406 " clip-rule="nonzero"/></clipPath><clipPath id="8c117a3e55"><rect x="0" width="10" y="0" height="8"/></clipPath><clipPath id="51bbaeaa79"><path d="M 23.386719 25.496094 L 31.84375 25.496094 L 31.84375 31.839844 L 23.386719 31.839844 Z M 23.386719 25.496094 " clip-rule="nonzero"/></clipPath><clipPath id="b49c43e5b2"><path d="M 0.386719 0.496094 L 8.84375 0.496094 L 8.84375 6.839844 L 0.386719 6.839844 Z M 0.386719 0.496094 " clip-rule="nonzero"/></clipPath><clipPath id="613917e069"><rect x="0" width="9" y="0" height="7"/></clipPath><clipPath id="f9c547265c"><path d="M 23.386719 33.941406 L 31.84375 33.941406 L 31.84375 40.285156 L 23.386719 40.285156 Z M 23.386719 33.941406 " clip-rule="nonzero"/></clipPath><clipPath id="60cc376cf9"><path d="M 0.386719 0.941406 L 8.84375 0.941406 L 8.84375 7.285156 L 0.386719 7.285156 Z M 0.386719 0.941406 " clip-rule="nonzero"/></clipPath><clipPath id="59e5a68fb6"><rect x="0" width="9" y="0" height="8"/></clipPath><clipPath id="fa1e3636e3"><path d="M 12.835938 25.496094 L 14.949219 25.496094 L 14.949219 31.839844 L 12.835938 31.839844 Z M 12.835938 25.496094 " clip-rule="nonzero"/></clipPath><clipPath id="55fea629d9"><path d="M 0.835938 0.496094 L 2.949219 0.496094 L 2.949219 6.839844 L 0.835938 6.839844 Z M 0.835938 0.496094 " clip-rule="nonzero"/></clipPath><clipPath id="47d220171e"><rect x="0" width="3" y="0" height="7"/></clipPath><clipPath id="7758905060"><path d="M 12.835938 33.941406 L 14.949219 33.941406 L 14.949219 40.285156 L 12.835938 40.285156 Z M 12.835938 33.941406 " clip-rule="nonzero"/></clipPath><clipPath id="e0ef2460c6"><path d="M 0.835938 0.941406 L 2.949219 0.941406 L 2.949219 7.285156 L 0.835938 7.285156 Z M 0.835938 0.941406 " clip-rule="nonzero"/></clipPath><clipPath id="f2f2421477"><rect x="0" width="3" y="0" height="8"/></clipPath><clipPath id="f1d4a08f43"><path d="M 23.390625 25.496094 L 25.503906 25.496094 L 25.503906 31.839844 L 23.390625 31.839844 Z M 23.390625 25.496094 " clip-rule="nonzero"/></clipPath><clipPath id="c14cf5d4fb"><path d="M 0.390625 0.496094 L 2.503906 0.496094 L 2.503906 6.839844 L 0.390625 6.839844 Z M 0.390625 0.496094 " clip-rule="nonzero"/></clipPath><clipPath id="e97dbb1845"><rect x="0" width="3" y="0" height="7"/></clipPath><clipPath id="42c1d8ef0c"><path d="M 23.390625 33.941406 L 25.503906 33.941406 L 25.503906 40.285156 L 23.390625 40.285156 Z M 23.390625 33.941406 " clip-rule="nonzero"/></clipPath><clipPath id="8170d13921"><path d="M 0.390625 0.941406 L 2.503906 0.941406 L 2.503906 7.285156 L 0.390625 7.285156 Z M 0.390625 0.941406 " clip-rule="nonzero"/></clipPath><clipPath id="a917ee60f4"><rect x="0" width="3" y="0" height="8"/></clipPath><clipPath id="98769d2986"><path d="M 6.5 25.496094 L 8.613281 25.496094 L 8.613281 31.839844 L 6.5 31.839844 Z M 6.5 25.496094 " clip-rule="nonzero"/></clipPath><clipPath id="6dbf17ed88"><path d="M 0.5 0.496094 L 2.613281 0.496094 L 2.613281 6.839844 L 0.5 6.839844 Z M 0.5 0.496094 " clip-rule="nonzero"/></clipPath><clipPath id="9e6a12d34b"><rect x="0" width="3" y="0" height="7"/></clipPath><clipPath id="e6367d1f4f"><path d="M 6.5 33.941406 L 8.613281 33.941406 L 8.613281 40.285156 L 6.5 40.285156 Z M 6.5 33.941406 " clip-rule="nonzero"/></clipPath><clipPath id="edff176370"><path d="M 0.5 0.941406 L 2.613281 0.941406 L 2.613281 7.285156 L 0.5 7.285156 Z M 0.5 0.941406 " clip-rule="nonzero"/></clipPath><clipPath id="009be7cb61"><rect x="0" width="3" y="0" height="8"/></clipPath><clipPath id="acc177d124"><path d="M 42.472656 25.496094 L 46.703125 25.496094 L 46.703125 31.839844 L 42.472656 31.839844 Z M 42.472656 25.496094 " clip-rule="nonzero"/></clipPath><clipPath id="cef3bfe259"><path d="M 0.472656 0.496094 L 4.703125 0.496094 L 4.703125 6.839844 L 0.472656 6.839844 Z M 0.472656 0.496094 " clip-rule="nonzero"/></clipPath><clipPath id="52dffa44d4"><rect x="0" width="5" y="0" height="7"/></clipPath><clipPath id="9bb3221587"><path d="M 42.394531 25.496094 L 44.507812 25.496094 L 44.507812 31.839844 L 42.394531 31.839844 Z M 42.394531 25.496094 " clip-rule="nonzero"/></clipPath><clipPath id="1693550dbc"><path d="M 0.394531 0.496094 L 2.507812 0.496094 L 2.507812 6.839844 L 0.394531 6.839844 Z M 0.394531 0.496094 " clip-rule="nonzero"/></clipPath><clipPath id="65ae87ed7f"><rect x="0" width="3" y="0" height="7"/></clipPath><clipPath id="adcccb2746"><path d="M 48.808594 25.496094 L 53.035156 25.496094 L 53.035156 31.839844 L 48.808594 31.839844 Z M 48.808594 25.496094 " clip-rule="nonzero"/></clipPath><clipPath id="3667854591"><path d="M 0.808594 0.496094 L 5.035156 0.496094 L 5.035156 6.839844 L 0.808594 6.839844 Z M 0.808594 0.496094 " clip-rule="nonzero"/></clipPath><clipPath id="ff7a5ff93b"><rect x="0" width="6" y="0" height="7"/></clipPath><clipPath id="94060cf75c"><path d="M 48.730469 25.496094 L 50.84375 25.496094 L 50.84375 31.839844 L 48.730469 31.839844 Z M 48.730469 25.496094 " clip-rule="nonzero"/></clipPath><clipPath id="7fe11ff81b"><path d="M 0.730469 0.496094 L 2.84375 0.496094 L 2.84375 6.839844 L 0.730469 6.839844 Z M 0.730469 0.496094 " clip-rule="nonzero"/></clipPath><clipPath id="86499625fc"><rect x="0" width="3" y="0" height="7"/></clipPath><clipPath id="1b8a8e18e9"><path d="M 48.808594 33.941406 L 53.035156 33.941406 L 53.035156 40.285156 L 48.808594 40.285156 Z M 48.808594 33.941406 " clip-rule="nonzero"/></clipPath><clipPath id="e16c04910a"><path d="M 0.808594 0.941406 L 5.035156 0.941406 L 5.035156 7.285156 L 0.808594 7.285156 Z M 0.808594 0.941406 " clip-rule="nonzero"/></clipPath><clipPath id="9f1bca0c35"><rect x="0" width="6" y="0" height="8"/></clipPath><clipPath id="9f185fb377"><path d="M 48.730469 33.941406 L 50.84375 33.941406 L 50.84375 40.285156 L 48.730469 40.285156 Z M 48.730469 33.941406 " clip-rule="nonzero"/></clipPath><clipPath id="ddb4551aff"><path d="M 0.730469 0.941406 L 2.84375 0.941406 L 2.84375 7.285156 L 0.730469 7.285156 Z M 0.730469 0.941406 " clip-rule="nonzero"/></clipPath><clipPath id="e84820c420"><rect x="0" width="3" y="0" height="8"/></clipPath><clipPath id="a6458e7828"><path d="M 38.25 48.722656 L 42.480469 48.722656 L 42.480469 55.066406 L 38.25 55.066406 Z M 38.25 48.722656 " clip-rule="nonzero"/></clipPath><clipPath id="77c21daea1"><path d="M 0.25 0.722656 L 4.480469 0.722656 L 4.480469 7.066406 L 0.25 7.066406 Z M 0.25 0.722656 " clip-rule="nonzero"/></clipPath><clipPath id="b1015466df"><rect x="0" width="5" y="0" height="8"/></clipPath><clipPath id="45b80d3ca8"><path d="M 38.171875 48.722656 L 40.285156 48.722656 L 40.285156 55.066406 L 38.171875 55.066406 Z M 38.171875 48.722656 " clip-rule="nonzero"/></clipPath><clipPath id="12b63c156d"><path d="M 0.171875 0.722656 L 2.285156 0.722656 L 2.285156 7.066406 L 0.171875 7.066406 Z M 0.171875 0.722656 " clip-rule="nonzero"/></clipPath><clipPath id="a7b5e0decb"><rect x="0" width="3" y="0" height="8"/></clipPath><clipPath id="ae4e554654"><path d="M 48.808594 48.722656 L 53.035156 48.722656 L 53.035156 55.066406 L 48.808594 55.066406 Z M 48.808594 48.722656 " clip-rule="nonzero"/></clipPath><clipPath id="d44678cf3f"><path d="M 0.808594 0.722656 L 5.035156 0.722656 L 5.035156 7.066406 L 0.808594 7.066406 Z M 0.808594 0.722656 " clip-rule="nonzero"/></clipPath><clipPath id="ba14d0cedf"><rect x="0" width="6" y="0" height="8"/></clipPath><clipPath id="ae08a91259"><path d="M 48.730469 48.722656 L 50.84375 48.722656 L 50.84375 55.066406 L 48.730469 55.066406 Z M 48.730469 48.722656 " clip-rule="nonzero"/></clipPath><clipPath id="0b0f9ec360"><path d="M 0.730469 0.722656 L 2.84375 0.722656 L 2.84375 7.066406 L 0.730469 7.066406 Z M 0.730469 0.722656 " clip-rule="nonzero"/></clipPath><clipPath id="e57381b872"><rect x="0" width="3" y="0" height="8"/></clipPath><clipPath id="2cf5dde398"><path d="M 42.472656 57.167969 L 46.703125 57.167969 L 46.703125 63.511719 L 42.472656 63.511719 Z M 42.472656 57.167969 " clip-rule="nonzero"/></clipPath><clipPath id="c3d72c0091"><path d="M 0.472656 0.167969 L 4.703125 0.167969 L 4.703125 6.511719 L 0.472656 6.511719 Z M 0.472656 0.167969 " clip-rule="nonzero"/></clipPath><clipPath id="a7cd913e67"><rect x="0" width="5" y="0" height="7"/></clipPath><clipPath id="fa2ddea816"><path d="M 42.394531 57.167969 L 44.507812 57.167969 L 44.507812 63.511719 L 42.394531 63.511719 Z M 42.394531 57.167969 " clip-rule="nonzero"/></clipPath><clipPath id="f38c3391df"><path d="M 0.394531 0.167969 L 2.507812 0.167969 L 2.507812 6.511719 L 0.394531 6.511719 Z M 0.394531 0.167969 " clip-rule="nonzero"/></clipPath><clipPath id="9f5f1c3dcd"><rect x="0" width="3" y="0" height="7"/></clipPath><clipPath id="9def808b4e"><path d="M 48.808594 57.167969 L 53.035156 57.167969 L 53.035156 63.511719 L 48.808594 63.511719 Z M 48.808594 57.167969 " clip-rule="nonzero"/></clipPath><clipPath id="895679887e"><path d="M 0.808594 0.167969 L 5.035156 0.167969 L 5.035156 6.511719 L 0.808594 6.511719 Z M 0.808594 0.167969 " clip-rule="nonzero"/></clipPath><clipPath id="d8e9ba1d80"><rect x="0" width="6" y="0" height="7"/></clipPath><clipPath id="c918ed47b7"><path d="M 48.730469 57.167969 L 50.84375 57.167969 L 50.84375 63.511719 L 48.730469 63.511719 Z M 48.730469 57.167969 " clip-rule="nonzero"/></clipPath><clipPath id="d9b0eaf6f2"><path d="M 0.730469 0.167969 L 2.84375 0.167969 L 2.84375 6.511719 L 0.730469 6.511719 Z M 0.730469 0.167969 " clip-rule="nonzero"/></clipPath><clipPath id="2441cb02b8"><rect x="0" width="3" y="0" height="7"/></clipPath><clipPath id="4f939ea5c1"><path d="M 42.472656 71.949219 L 46.703125 71.949219 L 46.703125 78.292969 L 42.472656 78.292969 Z M 42.472656 71.949219 " clip-rule="nonzero"/></clipPath><clipPath id="be8970f6d0"><path d="M 0.472656 0.949219 L 4.703125 0.949219 L 4.703125 7.292969 L 0.472656 7.292969 Z M 0.472656 0.949219 " clip-rule="nonzero"/></clipPath><clipPath id="23f282afa0"><rect x="0" width="5" y="0" height="8"/></clipPath><clipPath id="79442f50fa"><path d="M 42.394531 71.949219 L 44.507812 71.949219 L 44.507812 78.292969 L 42.394531 78.292969 Z M 42.394531 71.949219 " clip-rule="nonzero"/></clipPath><clipPath id="172615ec82"><path d="M 0.394531 0.949219 L 2.507812 0.949219 L 2.507812 7.292969 L 0.394531 7.292969 Z M 0.394531 0.949219 " clip-rule="nonzero"/></clipPath><clipPath id="63014abc9c"><rect x="0" width="3" y="0" height="8"/></clipPath><clipPath id="5e84382d0b"><path d="M 48.808594 71.949219 L 53.035156 71.949219 L 53.035156 78.292969 L 48.808594 78.292969 Z M 48.808594 71.949219 " clip-rule="nonzero"/></clipPath><clipPath id="c0e2096fff"><path d="M 0.808594 0.949219 L 5.035156 0.949219 L 5.035156 7.292969 L 0.808594 7.292969 Z M 0.808594 0.949219 " clip-rule="nonzero"/></clipPath><clipPath id="de35919e96"><rect x="0" width="6" y="0" height="8"/></clipPath><clipPath id="ddaea3edfc"><path d="M 48.730469 71.949219 L 50.84375 71.949219 L 50.84375 78.292969 L 48.730469 78.292969 Z M 48.730469 71.949219 " clip-rule="nonzero"/></clipPath><clipPath id="aa32ca2097"><path d="M 0.730469 0.949219 L 2.84375 0.949219 L 2.84375 7.292969 L 0.730469 7.292969 Z M 0.730469 0.949219 " clip-rule="nonzero"/></clipPath><clipPath id="cb7504b420"><rect x="0" width="3" y="0" height="8"/></clipPath><clipPath id="ce9dfd6cfa"><path d="M 48.808594 80.394531 L 53.035156 80.394531 L 53.035156 86.738281 L 48.808594 86.738281 Z M 48.808594 80.394531 " clip-rule="nonzero"/></clipPath><clipPath id="bf13c55267"><path d="M 0.808594 0.394531 L 5.035156 0.394531 L 5.035156 6.738281 L 0.808594 6.738281 Z M 0.808594 0.394531 " clip-rule="nonzero"/></clipPath><clipPath id="b0efd0b558"><rect x="0" width="6" y="0" height="7"/></clipPath><clipPath id="1c6781d445"><path d="M 48.730469 80.394531 L 50.84375 80.394531 L 50.84375 86.738281 L 48.730469 86.738281 Z M 48.730469 80.394531 " clip-rule="nonzero"/></clipPath><clipPath id="9cf8ceee55"><path d="M 0.730469 0.394531 L 2.84375 0.394531 L 2.84375 6.738281 L 0.730469 6.738281 Z M 0.730469 0.394531 " clip-rule="nonzero"/></clipPath><clipPath id="c4ca29edb2"><rect x="0" width="3" y="0" height="7"/></clipPath><clipPath id="095a04acd9"><path d="M 6.582031 48.722656 L 10.808594 48.722656 L 10.808594 55.066406 L 6.582031 55.066406 Z M 6.582031 48.722656 " clip-rule="nonzero"/></clipPath><clipPath id="ba7c80c584"><path d="M 0.582031 0.722656 L 4.808594 0.722656 L 4.808594 7.066406 L 0.582031 7.066406 Z M 0.582031 0.722656 " clip-rule="nonzero"/></clipPath><clipPath id="a16b3c3f49"><rect x="0" width="5" y="0" height="8"/></clipPath><clipPath id="1baef9a07c"><path d="M 12.832031 48.722656 L 21.285156 48.722656 L 21.285156 55.066406 L 12.832031 55.066406 Z M 12.832031 48.722656 " clip-rule="nonzero"/></clipPath><clipPath id="21b51eee89"><path d="M 0.832031 0.722656 L 9.285156 0.722656 L 9.285156 7.066406 L 0.832031 7.066406 Z M 0.832031 0.722656 " clip-rule="nonzero"/></clipPath><clipPath id="5be9740535"><rect x="0" width="10" y="0" height="8"/></clipPath><clipPath id="21ef00808b"><path d="M 6.582031 57.167969 L 10.808594 57.167969 L 10.808594 63.511719 L 6.582031 63.511719 Z M 6.582031 57.167969 " clip-rule="nonzero"/></clipPath><clipPath id="118a7fa828"><path d="M 0.582031 0.167969 L 4.808594 0.167969 L 4.808594 6.511719 L 0.582031 6.511719 Z M 0.582031 0.167969 " clip-rule="nonzero"/></clipPath><clipPath id="fb8ba1141d"><rect x="0" width="5" y="0" height="7"/></clipPath><clipPath id="c7b30ba9d8"><path d="M 12.832031 57.167969 L 21.285156 57.167969 L 21.285156 63.511719 L 12.832031 63.511719 Z M 12.832031 57.167969 " clip-rule="nonzero"/></clipPath><clipPath id="b5bc847f8d"><path d="M 0.832031 0.167969 L 9.285156 0.167969 L 9.285156 6.511719 L 0.832031 6.511719 Z M 0.832031 0.167969 " clip-rule="nonzero"/></clipPath><clipPath id="71b0d5744b"><rect x="0" width="10" y="0" height="7"/></clipPath><clipPath id="c6a5dcfc26"><path d="M 23.386719 48.722656 L 31.84375 48.722656 L 31.84375 55.066406 L 23.386719 55.066406 Z M 23.386719 48.722656 " clip-rule="nonzero"/></clipPath><clipPath id="feb2b565c6"><path d="M 0.386719 0.722656 L 8.84375 0.722656 L 8.84375 7.066406 L 0.386719 7.066406 Z M 0.386719 0.722656 " clip-rule="nonzero"/></clipPath><clipPath id="53b3d6cf85"><rect x="0" width="9" y="0" height="8"/></clipPath><clipPath id="60213b4094"><path d="M 12.835938 48.722656 L 14.949219 48.722656 L 14.949219 55.066406 L 12.835938 55.066406 Z M 12.835938 48.722656 " clip-rule="nonzero"/></clipPath><clipPath id="bd8c8d5b90"><path d="M 0.835938 0.722656 L 2.949219 0.722656 L 2.949219 7.066406 L 0.835938 7.066406 Z M 0.835938 0.722656 " clip-rule="nonzero"/></clipPath><clipPath id="c161d2e9ed"><rect x="0" width="3" y="0" height="8"/></clipPath><clipPath id="7d16e13e94"><path d="M 12.835938 57.167969 L 14.949219 57.167969 L 14.949219 63.511719 L 12.835938 63.511719 Z M 12.835938 57.167969 " clip-rule="nonzero"/></clipPath><clipPath id="17dc7a652a"><path d="M 0.835938 0.167969 L 2.949219 0.167969 L 2.949219 6.511719 L 0.835938 6.511719 Z M 0.835938 0.167969 " clip-rule="nonzero"/></clipPath><clipPath id="ac950f1792"><rect x="0" width="3" y="0" height="7"/></clipPath><clipPath id="6866e68933"><path d="M 23.390625 48.722656 L 25.503906 48.722656 L 25.503906 55.066406 L 23.390625 55.066406 Z M 23.390625 48.722656 " clip-rule="nonzero"/></clipPath><clipPath id="9895a5da67"><path d="M 0.390625 0.722656 L 2.503906 0.722656 L 2.503906 7.066406 L 0.390625 7.066406 Z M 0.390625 0.722656 " clip-rule="nonzero"/></clipPath><clipPath id="120b2b5ba5"><rect x="0" width="3" y="0" height="8"/></clipPath><clipPath id="6c54ec7b7c"><path d="M 6.5 48.722656 L 8.613281 48.722656 L 8.613281 55.066406 L 6.5 55.066406 Z M 6.5 48.722656 " clip-rule="nonzero"/></clipPath><clipPath id="34cc3d0a89"><path d="M 0.5 0.722656 L 2.613281 0.722656 L 2.613281 7.066406 L 0.5 7.066406 Z M 0.5 0.722656 " clip-rule="nonzero"/></clipPath><clipPath id="ae7c574d13"><rect x="0" width="3" y="0" height="8"/></clipPath><clipPath id="7e1c39ceb4"><path d="M 6.5 57.167969 L 8.613281 57.167969 L 8.613281 63.511719 L 6.5 63.511719 Z M 6.5 57.167969 " clip-rule="nonzero"/></clipPath><clipPath id="4a59d08e7e"><path d="M 0.5 0.167969 L 2.613281 0.167969 L 2.613281 6.511719 L 0.5 6.511719 Z M 0.5 0.167969 " clip-rule="nonzero"/></clipPath><clipPath id="10897d247c"><rect x="0" width="3" y="0" height="7"/></clipPath><clipPath id="acc6fd432f"><path d="M 6.582031 71.949219 L 10.808594 71.949219 L 10.808594 78.292969 L 6.582031 78.292969 Z M 6.582031 71.949219 " clip-rule="nonzero"/></clipPath><clipPath id="eada6ec6c9"><path d="M 0.582031 0.949219 L 4.808594 0.949219 L 4.808594 7.292969 L 0.582031 7.292969 Z M 0.582031 0.949219 " clip-rule="nonzero"/></clipPath><clipPath id="58fcc5f675"><rect x="0" width="5" y="0" height="8"/></clipPath><clipPath id="48ebb247d9"><path d="M 12.832031 71.949219 L 21.285156 71.949219 L 21.285156 78.292969 L 12.832031 78.292969 Z M 12.832031 71.949219 " clip-rule="nonzero"/></clipPath><clipPath id="21e8e22a34"><path d="M 0.832031 0.949219 L 9.285156 0.949219 L 9.285156 7.292969 L 0.832031 7.292969 Z M 0.832031 0.949219 " clip-rule="nonzero"/></clipPath><clipPath id="30954ab7d8"><rect x="0" width="10" y="0" height="8"/></clipPath><clipPath id="79dbe67aeb"><path d="M 6.582031 80.394531 L 10.808594 80.394531 L 10.808594 86.738281 L 6.582031 86.738281 Z M 6.582031 80.394531 " clip-rule="nonzero"/></clipPath><clipPath id="89ff6a4117"><path d="M 0.582031 0.394531 L 4.808594 0.394531 L 4.808594 6.738281 L 0.582031 6.738281 Z M 0.582031 0.394531 " clip-rule="nonzero"/></clipPath><clipPath id="fe4c51d3a8"><rect x="0" width="5" y="0" height="7"/></clipPath><clipPath id="43c4236493"><path d="M 12.832031 80.394531 L 21.285156 80.394531 L 21.285156 86.738281 L 12.832031 86.738281 Z M 12.832031 80.394531 " clip-rule="nonzero"/></clipPath><clipPath id="3cd8371d12"><path d="M 0.832031 0.394531 L 9.285156 0.394531 L 9.285156 6.738281 L 0.832031 6.738281 Z M 0.832031 0.394531 " clip-rule="nonzero"/></clipPath><clipPath id="e2eee7d906"><rect x="0" width="10" y="0" height="7"/></clipPath><clipPath id="9e264df7d9"><path d="M 23.386719 80.394531 L 31.84375 80.394531 L 31.84375 86.738281 L 23.386719 86.738281 Z M 23.386719 80.394531 " clip-rule="nonzero"/></clipPath><clipPath id="a19d92fd18"><path d="M 0.386719 0.394531 L 8.84375 0.394531 L 8.84375 6.738281 L 0.386719 6.738281 Z M 0.386719 0.394531 " clip-rule="nonzero"/></clipPath><clipPath id="374f94aacd"><rect x="0" width="9" y="0" height="7"/></clipPath><clipPath id="6be2dbb380"><path d="M 12.835938 71.949219 L 14.949219 71.949219 L 14.949219 78.292969 L 12.835938 78.292969 Z M 12.835938 71.949219 " clip-rule="nonzero"/></clipPath><clipPath id="46e5590355"><path d="M 0.835938 0.949219 L 2.949219 0.949219 L 2.949219 7.292969 L 0.835938 7.292969 Z M 0.835938 0.949219 " clip-rule="nonzero"/></clipPath><clipPath id="1aa21503f0"><rect x="0" width="3" y="0" height="8"/></clipPath><clipPath id="e61c1ba0a8"><path d="M 12.835938 80.394531 L 14.949219 80.394531 L 14.949219 86.738281 L 12.835938 86.738281 Z M 12.835938 80.394531 " clip-rule="nonzero"/></clipPath><clipPath id="401826f863"><path d="M 0.835938 0.394531 L 2.949219 0.394531 L 2.949219 6.738281 L 0.835938 6.738281 Z M 0.835938 0.394531 " clip-rule="nonzero"/></clipPath><clipPath id="403c37025e"><rect x="0" width="3" y="0" height="7"/></clipPath><clipPath id="8a2101ab79"><path d="M 23.390625 80.394531 L 25.503906 80.394531 L 25.503906 86.738281 L 23.390625 86.738281 Z M 23.390625 80.394531 " clip-rule="nonzero"/></clipPath><clipPath id="7ff7e332c0"><path d="M 0.390625 0.394531 L 2.503906 0.394531 L 2.503906 6.738281 L 0.390625 6.738281 Z M 0.390625 0.394531 " clip-rule="nonzero"/></clipPath><clipPath id="d40f622ba9"><rect x="0" width="3" y="0" height="7"/></clipPath><clipPath id="1b3c9f1217"><path d="M 6.5 71.949219 L 8.613281 71.949219 L 8.613281 78.292969 L 6.5 78.292969 Z M 6.5 71.949219 " clip-rule="nonzero"/></clipPath><clipPath id="90483cbd75"><path d="M 0.5 0.949219 L 2.613281 0.949219 L 2.613281 7.292969 L 0.5 7.292969 Z M 0.5 0.949219 " clip-rule="nonzero"/></clipPath><clipPath id="6d6d9e9da6"><rect x="0" width="3" y="0" height="8"/></clipPath><clipPath id="f8c6c0eaf9"><path d="M 6.5 80.394531 L 8.613281 80.394531 L 8.613281 86.738281 L 6.5 86.738281 Z M 6.5 80.394531 " clip-rule="nonzero"/></clipPath><clipPath id="25a161c933"><path d="M 0.5 0.394531 L 2.613281 0.394531 L 2.613281 6.738281 L 0.5 6.738281 Z M 0.5 0.394531 " clip-rule="nonzero"/></clipPath><clipPath id="2c8a0587f9"><rect x="0" width="3" y="0" height="7"/></clipPath><clipPath id="cb40dba8ba"><path d="M 6.582031 95.175781 L 10.808594 95.175781 L 10.808594 101.515625 L 6.582031 101.515625 Z M 6.582031 95.175781 " clip-rule="nonzero"/></clipPath><clipPath id="5e0e57df91"><path d="M 0.582031 0.175781 L 4.808594 0.175781 L 4.808594 6.515625 L 0.582031 6.515625 Z M 0.582031 0.175781 " clip-rule="nonzero"/></clipPath><clipPath id="fffbd5c115"><rect x="0" width="5" y="0" height="7"/></clipPath><clipPath id="9d43cb3603"><path d="M 12.832031 95.175781 L 21.289062 95.175781 L 21.289062 101.515625 L 12.832031 101.515625 Z M 12.832031 95.175781 " clip-rule="nonzero"/></clipPath><clipPath id="284f9d0c46"><path d="M 0.832031 0.175781 L 9.289062 0.175781 L 9.289062 6.515625 L 0.832031 6.515625 Z M 0.832031 0.175781 " clip-rule="nonzero"/></clipPath><clipPath id="e180605a9d"><rect x="0" width="10" y="0" height="7"/></clipPath><clipPath id="a6002574d1"><path d="M 6.582031 103.621094 L 10.808594 103.621094 L 10.808594 109.964844 L 6.582031 109.964844 Z M 6.582031 103.621094 " clip-rule="nonzero"/></clipPath><clipPath id="119e77515b"><path d="M 0.582031 0.621094 L 4.808594 0.621094 L 4.808594 6.964844 L 0.582031 6.964844 Z M 0.582031 0.621094 " clip-rule="nonzero"/></clipPath><clipPath id="3714148821"><rect x="0" width="5" y="0" height="7"/></clipPath><clipPath id="951bf755a6"><path d="M 12.832031 103.621094 L 21.289062 103.621094 L 21.289062 109.964844 L 12.832031 109.964844 Z M 12.832031 103.621094 " clip-rule="nonzero"/></clipPath><clipPath id="3e8e7ec365"><path d="M 0.832031 0.621094 L 9.289062 0.621094 L 9.289062 6.964844 L 0.832031 6.964844 Z M 0.832031 0.621094 " clip-rule="nonzero"/></clipPath><clipPath id="a68ad81593"><rect x="0" width="10" y="0" height="7"/></clipPath><clipPath id="a823c3b3fe"><path d="M 12.835938 95.175781 L 14.949219 95.175781 L 14.949219 101.515625 L 12.835938 101.515625 Z M 12.835938 95.175781 " clip-rule="nonzero"/></clipPath><clipPath id="d8043a8927"><path d="M 0.835938 0.175781 L 2.949219 0.175781 L 2.949219 6.515625 L 0.835938 6.515625 Z M 0.835938 0.175781 " clip-rule="nonzero"/></clipPath><clipPath id="85a51a23a0"><rect x="0" width="3" y="0" height="7"/></clipPath><clipPath id="dafebe3002"><path d="M 12.835938 103.621094 L 14.949219 103.621094 L 14.949219 109.964844 L 12.835938 109.964844 Z M 12.835938 103.621094 " clip-rule="nonzero"/></clipPath><clipPath id="f4b9f96c9b"><path d="M 0.835938 0.621094 L 2.949219 0.621094 L 2.949219 6.964844 L 0.835938 6.964844 Z M 0.835938 0.621094 " clip-rule="nonzero"/></clipPath><clipPath id="dad822a488"><rect x="0" width="3" y="0" height="7"/></clipPath><clipPath id="a8663a13e4"><path d="M 6.5 95.175781 L 8.613281 95.175781 L 8.613281 101.515625 L 6.5 101.515625 Z M 6.5 95.175781 " clip-rule="nonzero"/></clipPath><clipPath id="55df0e0621"><path d="M 0.5 0.175781 L 2.613281 0.175781 L 2.613281 6.515625 L 0.5 6.515625 Z M 0.5 0.175781 " clip-rule="nonzero"/></clipPath><clipPath id="f57d1d9051"><rect x="0" width="3" y="0" height="7"/></clipPath><clipPath id="44a43a2c4c"><path d="M 6.5 103.621094 L 8.613281 103.621094 L 8.613281 109.964844 L 6.5 109.964844 Z M 6.5 103.621094 " clip-rule="nonzero"/></clipPath><clipPath id="ce40b2f95e"><path d="M 0.5 0.621094 L 2.613281 0.621094 L 2.613281 6.964844 L 0.5 6.964844 Z M 0.5 0.621094 " clip-rule="nonzero"/></clipPath><clipPath id="4b689bb48a"><rect x="0" width="3" y="0" height="7"/></clipPath><clipPath id="5513914242"><path d="M 8.613281 2.113281 L 11.050781 2.113281 L 11.050781 4.550781 L 8.613281 4.550781 Z M 8.613281 2.113281 " clip-rule="nonzero"/></clipPath><clipPath id="a778d167ba"><path d="M 0.613281 0.113281 L 3.050781 0.113281 L 3.050781 2.550781 L 0.613281 2.550781 Z M 0.613281 0.113281 " clip-rule="nonzero"/></clipPath><clipPath id="01b11bcab9"><rect x="0" width="4" y="0" height="3"/></clipPath><clipPath id="25a052f700"><path d="M 23.386719 57.007812 L 32.171875 57.007812 L 32.171875 59.203125 L 23.386719 59.203125 Z M 23.386719 57.007812 " clip-rule="nonzero"/></clipPath><clipPath id="a25f18515e"><path d="M 0.386719 0.0078125 L 9.171875 0.0078125 L 9.171875 2.203125 L 0.386719 2.203125 Z M 0.386719 0.0078125 " clip-rule="nonzero"/></clipPath><clipPath id="fe90938f18"><rect x="0" width="10" y="0" height="3"/></clipPath><clipPath id="87fbbb07f8"><path d="M 33.949219 38.003906 L 36.386719 38.003906 L 36.386719 40.445312 L 33.949219 40.445312 Z M 33.949219 38.003906 " clip-rule="nonzero"/></clipPath><clipPath id="7c9c151379"><path d="M 0.949219 0.00390625 L 3.386719 0.00390625 L 3.386719 2.445312 L 0.949219 2.445312 Z M 0.949219 0.00390625 " clip-rule="nonzero"/></clipPath><clipPath id="67734e31f9"><rect x="0" width="4" y="0" height="3"/></clipPath><clipPath id="645d545ef4"><path d="M 23.390625 57.007812 L 25.832031 57.007812 L 25.832031 59.449219 L 23.390625 59.449219 Z M 23.390625 57.007812 " clip-rule="nonzero"/></clipPath><clipPath id="bc16539291"><path d="M 0.390625 0.0078125 L 2.832031 0.0078125 L 2.832031 2.449219 L 0.390625 2.449219 Z M 0.390625 0.0078125 " clip-rule="nonzero"/></clipPath><clipPath id="d6e4101d4c"><rect x="0" width="3" y="0" height="3"/></clipPath><clipPath id="9f962760d4"><path d="M 31.835938 71.789062 L 40.617188 71.789062 L 40.617188 73.984375 L 31.835938 73.984375 Z M 31.835938 71.789062 " clip-rule="nonzero"/></clipPath><clipPath id="28e4925916"><path d="M 0.835938 0.789062 L 9.617188 0.789062 L 9.617188 2.984375 L 0.835938 2.984375 Z M 0.835938 0.789062 " clip-rule="nonzero"/></clipPath><clipPath id="f7af8c555c"><rect x="0" width="10" y="0" height="3"/></clipPath><clipPath id="11092d372f"><path d="M 31.839844 71.789062 L 34.277344 71.789062 L 34.277344 74.230469 L 31.839844 74.230469 Z M 31.839844 71.789062 " clip-rule="nonzero"/></clipPath><clipPath id="0048b6f169"><path d="M 0.839844 0.789062 L 3.277344 0.789062 L 3.277344 3.230469 L 0.839844 3.230469 Z M 0.839844 0.789062 " clip-rule="nonzero"/></clipPath><clipPath id="163f82ea96"><rect x="0" width="4" y="0" height="4"/></clipPath><clipPath id="acf6fc0510"><path d="M 23.386719 99.238281 L 32.171875 99.238281 L 32.171875 101.433594 L 23.386719 101.433594 Z M 23.386719 99.238281 " clip-rule="nonzero"/></clipPath><clipPath id="5336ab676c"><path d="M 0.386719 0.238281 L 9.171875 0.238281 L 9.171875 2.433594 L 0.386719 2.433594 Z M 0.386719 0.238281 " clip-rule="nonzero"/></clipPath><clipPath id="e5cb438b8b"><rect x="0" width="10" y="0" height="3"/></clipPath><clipPath id="954c35b9c0"><path d="M 23.390625 99.238281 L 25.832031 99.238281 L 25.832031 101.675781 L 23.390625 101.675781 Z M 23.390625 99.238281 " clip-rule="nonzero"/></clipPath><clipPath id="c69298365e"><path d="M 0.390625 0.238281 L 2.832031 0.238281 L 2.832031 2.675781 L 0.390625 2.675781 Z M 0.390625 0.238281 " clip-rule="nonzero"/></clipPath><clipPath id="e02b0bf700"><rect x="0" width="3" y="0" height="3"/></clipPath><clipPath id="869006ba5a"><path d="M 4.519531 44.339844 L 55.261719 44.339844 L 55.261719 46.453125 L 4.519531 46.453125 Z M 4.519531 44.339844 " clip-rule="nonzero"/></clipPath><clipPath id="6912946fa8"><path d="M 0.519531 0.339844 L 51.261719 0.339844 L 51.261719 2.453125 L 0.519531 2.453125 Z M 0.519531 0.339844 " clip-rule="nonzero"/></clipPath><clipPath id="0fc34d2a38"><rect x="0" width="52" y="0" height="3"/></clipPath><clipPath id="cf7dc6ee43"><path d="M 4.519531 21.113281 L 55.261719 21.113281 L 55.261719 23.226562 L 4.519531 23.226562 Z M 4.519531 21.113281 " clip-rule="nonzero"/></clipPath><clipPath id="d8896419c7"><path d="M 0.519531 0.113281 L 51.261719 0.113281 L 51.261719 2.226562 L 0.519531 2.226562 Z M 0.519531 0.113281 " clip-rule="nonzero"/></clipPath><clipPath id="ef301f4892"><rect x="0" width="52" y="0" height="3"/></clipPath><clipPath id="88e520b33b"><path d="M 12.890625 21.113281 L 55.335938 21.113281 L 55.335938 23.238281 L 12.890625 23.238281 Z M 12.890625 21.113281 " clip-rule="nonzero"/></clipPath><clipPath id="1dc1d34845"><path d="M 0.890625 0.113281 L 43.335938 0.113281 L 43.335938 2.238281 L 0.890625 2.238281 Z M 0.890625 0.113281 " clip-rule="nonzero"/></clipPath><clipPath id="eb6cadd6d0"><rect x="0" width="44" y="0" height="3"/></clipPath><clipPath id="cddf6f22b3"><path d="M 12.890625 44.339844 L 55.335938 44.339844 L 55.335938 46.460938 L 12.890625 46.460938 Z M 12.890625 44.339844 " clip-rule="nonzero"/></clipPath><clipPath id="e53eaa544b"><path d="M 0.890625 0.339844 L 43.335938 0.339844 L 43.335938 2.460938 L 0.890625 2.460938 Z M 0.890625 0.339844 " clip-rule="nonzero"/></clipPath><clipPath id="3d709d4d48"><rect x="0" width="44" y="0" height="3"/></clipPath><clipPath id="3e4eb86bf4"><path d="M 12.890625 90.792969 L 55.335938 90.792969 L 55.335938 92.914062 L 12.890625 92.914062 Z M 12.890625 90.792969 " clip-rule="nonzero"/></clipPath><clipPath id="9d14dfa5a8"><path d="M 0.890625 0.792969 L 43.335938 0.792969 L 43.335938 2.914062 L 0.890625 2.914062 Z M 0.890625 0.792969 " clip-rule="nonzero"/></clipPath><clipPath id="ac7da5ddcc"><rect x="0" width="44" y="0" height="3"/></clipPath><clipPath id="4ded842470"><path d="M 12.890625 67.566406 L 55.335938 67.566406 L 55.335938 69.6875 L 12.890625 69.6875 Z M 12.890625 67.566406 " clip-rule="nonzero"/></clipPath><clipPath id="c58f9aa47b"><path d="M 0.890625 0.566406 L 43.335938 0.566406 L 43.335938 2.6875 L 0.890625 2.6875 Z M 0.890625 0.566406 " clip-rule="nonzero"/></clipPath><clipPath id="c0e06d805d"><rect x="0" width="44" y="0" height="3"/></clipPath><clipPath id="6ba7690428"><path d="M 4.519531 67.566406 L 55.261719 67.566406 L 55.261719 69.679688 L 4.519531 69.679688 Z M 4.519531 67.566406 " clip-rule="nonzero"/></clipPath><clipPath id="327bbe5bb0"><path d="M 0.519531 0.566406 L 51.261719 0.566406 L 51.261719 2.679688 L 0.519531 2.679688 Z M 0.519531 0.566406 " clip-rule="nonzero"/></clipPath><clipPath id="ee2d1ea132"><rect x="0" width="52" y="0" height="3"/></clipPath><clipPath id="71cbec20b5"><path d="M 4.519531 90.792969 L 55.261719 90.792969 L 55.261719 92.90625 L 4.519531 92.90625 Z M 4.519531 90.792969 " clip-rule="nonzero"/></clipPath><clipPath id="effbb39753"><path d="M 0.519531 0.792969 L 51.261719 0.792969 L 51.261719 2.90625 L 0.519531 2.90625 Z M 0.519531 0.792969 " clip-rule="nonzero"/></clipPath><clipPath id="27fcdd3924"><rect x="0" width="52" y="0" height="3"/></clipPath><clipPath id="097f37cf00"><path d="M 23.535156 21.113281 L 55.25 21.113281 L 55.25 23.226562 L 23.535156 23.226562 Z M 23.535156 21.113281 " clip-rule="nonzero"/></clipPath><clipPath id="b7189509c6"><path d="M 0.535156 0.113281 L 32.25 0.113281 L 32.25 2.226562 L 0.535156 2.226562 Z M 0.535156 0.113281 " clip-rule="nonzero"/></clipPath><clipPath id="448449334c"><rect x="0" width="33" y="0" height="3"/></clipPath><clipPath id="89aa783f0e"><path d="M 23.535156 44.339844 L 55.25 44.339844 L 55.25 46.453125 L 23.535156 46.453125 Z M 23.535156 44.339844 " clip-rule="nonzero"/></clipPath><clipPath id="fc8e588b52"><path d="M 0.535156 0.339844 L 32.25 0.339844 L 32.25 2.453125 L 0.535156 2.453125 Z M 0.535156 0.339844 " clip-rule="nonzero"/></clipPath><clipPath id="7772d80cd8"><rect x="0" width="33" y="0" height="3"/></clipPath><clipPath id="4da8d28618"><path d="M 23.535156 67.566406 L 55.25 67.566406 L 55.25 69.679688 L 23.535156 69.679688 Z M 23.535156 67.566406 " clip-rule="nonzero"/></clipPath><clipPath id="ed12ceef4b"><path d="M 0.535156 0.566406 L 32.25 0.566406 L 32.25 2.679688 L 0.535156 2.679688 Z M 0.535156 0.566406 " clip-rule="nonzero"/></clipPath><clipPath id="51f7c0e8da"><rect x="0" width="33" y="0" height="3"/></clipPath><clipPath id="b36ae0438d"><path d="M 23.535156 90.792969 L 55.25 90.792969 L 55.25 92.90625 L 23.535156 92.90625 Z M 23.535156 90.792969 " clip-rule="nonzero"/></clipPath><clipPath id="9f88bcf96d"><path d="M 0.535156 0.792969 L 32.25 0.792969 L 32.25 2.90625 L 0.535156 2.90625 Z M 0.535156 0.792969 " clip-rule="nonzero"/></clipPath><clipPath id="6869d14217"><rect x="0" width="33" y="0" height="3"/></clipPath><clipPath id="4016894477"><path d="M 2.324219 42.226562 L 57.457031 42.226562 L 57.457031 44.351562 L 2.324219 44.351562 Z M 2.324219 42.226562 " clip-rule="nonzero"/></clipPath><clipPath id="4920b86768"><path d="M 0.324219 0.226562 L 55.457031 0.226562 L 55.457031 2.351562 L 0.324219 2.351562 Z M 0.324219 0.226562 " clip-rule="nonzero"/></clipPath><clipPath id="26f00158ce"><rect x="0" width="56" y="0" height="3"/></clipPath><clipPath id="c02d337b96"><path d="M 46.617188 95.015625 L 49.058594 95.015625 L 49.058594 97.453125 L 46.617188 97.453125 Z M 46.617188 95.015625 " clip-rule="nonzero"/></clipPath><clipPath id="4e9603f095"><path d="M 0.617188 0.015625 L 3.058594 0.015625 L 3.058594 2.453125 L 0.617188 2.453125 Z M 0.617188 0.015625 " clip-rule="nonzero"/></clipPath><clipPath id="162b58dd77"><rect x="0" width="4" y="0" height="3"/></clipPath><clipPath id="98d496e0cc"><path d="M 50.839844 95.015625 L 53.28125 95.015625 L 53.28125 97.457031 L 50.839844 97.457031 Z M 50.839844 95.015625 " clip-rule="nonzero"/></clipPath><clipPath id="5c140d3882"><path d="M 0.839844 0.015625 L 3.28125 0.015625 L 3.28125 2.457031 L 0.839844 2.457031 Z M 0.839844 0.015625 " clip-rule="nonzero"/></clipPath><clipPath id="197154f22d"><rect x="0" width="4" y="0" height="3"/></clipPath><clipPath id="d5a67af88b"><path d="M 44.507812 97.125 L 46.945312 97.125 L 46.945312 99.566406 L 44.507812 99.566406 Z M 44.507812 97.125 " clip-rule="nonzero"/></clipPath><clipPath id="714368b0f4"><path d="M 0.507812 0.125 L 2.945312 0.125 L 2.945312 2.566406 L 0.507812 2.566406 Z M 0.507812 0.125 " clip-rule="nonzero"/></clipPath><clipPath id="2116b8adfe"><rect x="0" width="3" y="0" height="3"/></clipPath><clipPath id="c864fef5c2"><path d="M 48.730469 97.125 L 51.167969 97.125 L 51.167969 99.566406 L 48.730469 99.566406 Z M 48.730469 97.125 " clip-rule="nonzero"/></clipPath><clipPath id="48a3fbbd6f"><path d="M 0.730469 0.125 L 3.167969 0.125 L 3.167969 2.566406 L 0.730469 2.566406 Z M 0.730469 0.125 " clip-rule="nonzero"/></clipPath><clipPath id="08430e81ef"><rect x="0" width="4" y="0" height="3"/></clipPath><clipPath id="b14dcf9c45"><path d="M 42.394531 95.015625 L 44.835938 95.015625 L 44.835938 97.457031 L 42.394531 97.457031 Z M 42.394531 95.015625 " clip-rule="nonzero"/></clipPath><clipPath id="5487db4329"><path d="M 0.394531 0.015625 L 2.835938 0.015625 L 2.835938 2.457031 L 0.394531 2.457031 Z M 0.394531 0.015625 " clip-rule="nonzero"/></clipPath><clipPath id="d5b6959f7a"><rect x="0" width="3" y="0" height="3"/></clipPath><clipPath id="7325e424e5"><path d="M 42.394531 99.238281 L 44.835938 99.238281 L 44.835938 101.675781 L 42.394531 101.675781 Z M 42.394531 99.238281 " clip-rule="nonzero"/></clipPath><clipPath id="18ba225caf"><path d="M 0.394531 0.238281 L 2.835938 0.238281 L 2.835938 2.675781 L 0.394531 2.675781 Z M 0.394531 0.238281 " clip-rule="nonzero"/></clipPath><clipPath id="69dc94dffb"><rect x="0" width="3" y="0" height="3"/></clipPath><clipPath id="2f293978ee"><path d="M 46.617188 99.238281 L 49.058594 99.238281 L 49.058594 101.675781 L 46.617188 101.675781 Z M 46.617188 99.238281 " clip-rule="nonzero"/></clipPath><clipPath id="af30b4fd19"><path d="M 0.617188 0.238281 L 3.058594 0.238281 L 3.058594 2.675781 L 0.617188 2.675781 Z M 0.617188 0.238281 " clip-rule="nonzero"/></clipPath><clipPath id="4d9bed64e2"><rect x="0" width="4" y="0" height="3"/></clipPath><clipPath id="fdcbc4f622"><path d="M 50.839844 99.238281 L 53.28125 99.238281 L 53.28125 101.675781 L 50.839844 101.675781 Z M 50.839844 99.238281 " clip-rule="nonzero"/></clipPath><clipPath id="1953bc5d3a"><path d="M 0.839844 0.238281 L 3.28125 0.238281 L 3.28125 2.675781 L 0.839844 2.675781 Z M 0.839844 0.238281 " clip-rule="nonzero"/></clipPath><clipPath id="97c683022c"><rect x="0" width="4" y="0" height="3"/></clipPath><clipPath id="915989a967"><path d="M 42.394531 103.460938 L 44.835938 103.460938 L 44.835938 105.898438 L 42.394531 105.898438 Z M 42.394531 103.460938 " clip-rule="nonzero"/></clipPath><clipPath id="6bd8dd3ed9"><path d="M 0.394531 0.460938 L 2.835938 0.460938 L 2.835938 2.898438 L 0.394531 2.898438 Z M 0.394531 0.460938 " clip-rule="nonzero"/></clipPath><clipPath id="5282adeb9a"><rect x="0" width="3" y="0" height="3"/></clipPath><clipPath id="1a0e29e0f5"><path d="M 42.394531 107.683594 L 44.835938 107.683594 L 44.835938 110.121094 L 42.394531 110.121094 Z M 42.394531 107.683594 " clip-rule="nonzero"/></clipPath><clipPath id="86768fb090"><path d="M 0.394531 0.683594 L 2.835938 0.683594 L 2.835938 3.121094 L 0.394531 3.121094 Z M 0.394531 0.683594 " clip-rule="nonzero"/></clipPath><clipPath id="0399e1ee98"><rect x="0" width="3" y="0" height="4"/></clipPath><clipPath id="f6b2838add"><path d="M 46.617188 103.460938 L 49.058594 103.460938 L 49.058594 105.898438 L 46.617188 105.898438 Z M 46.617188 103.460938 " clip-rule="nonzero"/></clipPath><clipPath id="c7fe0fd62e"><path d="M 0.617188 0.460938 L 3.058594 0.460938 L 3.058594 2.898438 L 0.617188 2.898438 Z M 0.617188 0.460938 " clip-rule="nonzero"/></clipPath><clipPath id="a68c9c7c68"><rect x="0" width="4" y="0" height="3"/></clipPath><clipPath id="432d41da07"><path d="M 46.617188 107.683594 L 49.058594 107.683594 L 49.058594 110.121094 L 46.617188 110.121094 Z M 46.617188 107.683594 " clip-rule="nonzero"/></clipPath><clipPath id="e77e9f97e7"><path d="M 0.617188 0.683594 L 3.058594 0.683594 L 3.058594 3.121094 L 0.617188 3.121094 Z M 0.617188 0.683594 " clip-rule="nonzero"/></clipPath><clipPath id="89522c7353"><rect x="0" width="4" y="0" height="4"/></clipPath><clipPath id="083de8b8fc"><path d="M 50.839844 103.460938 L 53.28125 103.460938 L 53.28125 105.898438 L 50.839844 105.898438 Z M 50.839844 103.460938 " clip-rule="nonzero"/></clipPath><clipPath id="2deff1f044"><path d="M 0.839844 0.460938 L 3.28125 0.460938 L 3.28125 2.898438 L 0.839844 2.898438 Z M 0.839844 0.460938 " clip-rule="nonzero"/></clipPath><clipPath id="5d86a14888"><rect x="0" width="4" y="0" height="3"/></clipPath><clipPath id="83aeeb35a7"><path d="M 50.839844 107.683594 L 53.28125 107.683594 L 53.28125 110.121094 L 50.839844 110.121094 Z M 50.839844 107.683594 " clip-rule="nonzero"/></clipPath><clipPath id="c58e805e34"><path d="M 0.839844 0.683594 L 3.28125 0.683594 L 3.28125 3.121094 L 0.839844 3.121094 Z M 0.839844 0.683594 " clip-rule="nonzero"/></clipPath><clipPath id="ac7ee6949d"><rect x="0" width="4" y="0" height="4"/></clipPath></defs><g clip-path="url(#4756213c8e)"><path fill="#2c2e77" d="M 57.347656 12.660156 L 57.347656 4.230469 L 40.394531 4.230469 L 40.394531 8.445312 L 6.488281 8.445312 L 6.488281 2.125 L 4.367188 2.125 L 4.367188 8.445312 L 2.25 8.445312 L 2.25 12.660156 L 0.128906 12.660156 L 0.128906 18.984375 L 2.25 18.984375 L 2.25 113.828125 L 57.347656 113.828125 L 57.347656 18.984375 L 59.46875 18.984375 L 59.46875 12.660156 Z M 6.488281 12.660156 L 4.367188 12.660156 L 4.367188 10.554688 L 6.488281 10.554688 Z M 10.726562 12.660156 L 8.605469 12.660156 L 8.605469 10.554688 L 10.726562 10.554688 Z M 14.964844 12.660156 L 12.84375 12.660156 L 12.84375 10.554688 L 14.964844 10.554688 Z M 19.203125 12.660156 L 17.082031 12.660156 L 17.082031 10.554688 L 19.203125 10.554688 Z M 23.441406 12.660156 L 21.320312 12.660156 L 21.320312 10.554688 L 23.441406 10.554688 Z M 27.679688 12.660156 L 25.558594 12.660156 L 25.558594 10.554688 L 27.679688 10.554688 Z M 31.917969 12.660156 L 29.796875 12.660156 L 29.796875 10.554688 L 31.917969 10.554688 Z M 36.15625 12.660156 L 34.035156 12.660156 L 34.035156 10.554688 L 36.15625 10.554688 Z M 40.394531 12.660156 L 38.273438 12.660156 L 38.273438 10.554688 L 40.394531 10.554688 Z M 40.394531 12.660156 " fill-opacity="1" fill-rule="nonzero"/></g><g clip-path="url(#df4a29ca5b)"><g transform="matrix(1, 0, 0, 1, 6, 0)"><g clip-path="url(#15b862dd48)"><g clip-path="url(#901d339f1a)"><path fill="#2c2e77" d="M 0.5 0 L 2.9375 0 L 2.9375 2.4375 L 0.5 2.4375 Z M 0.5 0 " fill-opacity="1" fill-rule="nonzero"/></g></g></g></g><g clip-path="url(#1686762cb7)"><g transform="matrix(1, 0, 0, 1, 4, 19)"><g clip-path="url(#98b6c2393f)"><g clip-path="url(#ad17e75274)"><path fill="#2c2e77" d="M 0.519531 0.0273438 L 51.261719 0.0273438 L 51.261719 92.984375 L 0.519531 92.984375 Z M 0.519531 0.0273438 " fill-opacity="1" fill-rule="nonzero"/></g></g></g></g><g clip-path="url(#e01cd7cef4)"><g transform="matrix(1, 0, 0, 1, 2, 19)"><g clip-path="url(#71a2fd53e1)"><g clip-path="url(#2476a83fcb)"><path fill="#14164b" d="M 0.324219 0.00390625 L 55.453125 0.00390625 L 55.453125 2.121094 L 0.324219 2.121094 Z M 0.324219 0.00390625 " fill-opacity="1" fill-rule="nonzero"/></g></g></g></g><g clip-path="url(#73b6883404)"><g transform="matrix(1, 0, 0, 1, 2, 65)"><g clip-path="url(#1733ff7c16)"><g clip-path="url(#192d1afb1e)"><path fill="#14164b" d="M 0.324219 0.453125 L 55.453125 0.453125 L 55.453125 2.574219 L 0.324219 2.574219 Z M 0.324219 0.453125 " fill-opacity="1" fill-rule="nonzero"/></g></g></g></g><g clip-path="url(#5c60092aa0)"><g transform="matrix(1, 0, 0, 1, 2, 88)"><g clip-path="url(#86f511a4b9)"><g clip-path="url(#b6754f7dab)"><path fill="#14164b" d="M 0.324219 0.679688 L 55.453125 0.679688 L 55.453125 2.800781 L 0.324219 2.800781 Z M 0.324219 0.679688 " fill-opacity="1" fill-rule="nonzero"/></g></g></g></g><g clip-path="url(#124ed8b33b)"><g transform="matrix(1, 0, 0, 1, 6, 25)"><g clip-path="url(#349fff4008)"><g clip-path="url(#956b910657)"><path fill="#f77bb7" d="M 0.582031 0.496094 L 4.808594 0.496094 L 4.808594 6.835938 L 0.582031 6.835938 Z M 0.582031 0.496094 " fill-opacity="1" fill-rule="nonzero"/></g></g></g></g><g clip-path="url(#b913348529)"><g transform="matrix(1, 0, 0, 1, 12, 25)"><g clip-path="url(#ad26e910ef)"><g clip-path="url(#4d12ee7ffa)"><path fill="#f7c041" d="M 0.832031 0.496094 L 9.277344 0.496094 L 9.277344 6.839844 L 0.832031 6.839844 Z M 0.832031 0.496094 " fill-opacity="1" fill-rule="nonzero"/></g></g></g></g><g clip-path="url(#9630f566ea)"><g transform="matrix(1, 0, 0, 1, 6, 33)"><g clip-path="url(#a630d6983c)"><g clip-path="url(#64fddcdb4d)"><path fill="#f7c041" d="M 0.582031 0.941406 L 4.808594 0.941406 L 4.808594 7.285156 L 0.582031 7.285156 Z M 0.582031 0.941406 " fill-opacity="1" fill-rule="nonzero"/></g></g></g></g><g clip-path="url(#d2eac2ee4e)"><g transform="matrix(1, 0, 0, 1, 12, 33)"><g clip-path="url(#8c117a3e55)"><g clip-path="url(#44c7acab5b)"><path fill="#f7c041" d="M 0.832031 0.941406 L 9.277344 0.941406 L 9.277344 7.285156 L 0.832031 7.285156 Z M 0.832031 0.941406 " fill-opacity="1" fill-rule="nonzero"/></g></g></g></g><g clip-path="url(#51bbaeaa79)"><g transform="matrix(1, 0, 0, 1, 23, 25)"><g clip-path="url(#613917e069)"><g clip-path="url(#b49c43e5b2)"><path fill="#f7c041" d="M 0.386719 0.496094 L 8.835938 0.496094 L 8.835938 6.839844 L 0.386719 6.839844 Z M 0.386719 0.496094 " fill-opacity="1" fill-rule="nonzero"/></g></g></g></g><g clip-path="url(#f9c547265c)"><g transform="matrix(1, 0, 0, 1, 23, 33)"><g clip-path="url(#59e5a68fb6)"><g clip-path="url(#60cc376cf9)"><path fill="#f7c041" d="M 0.386719 0.941406 L 8.835938 0.941406 L 8.835938 7.285156 L 0.386719 7.285156 Z M 0.386719 0.941406 " fill-opacity="1" fill-rule="nonzero"/></g></g></g></g><g clip-path="url(#fa1e3636e3)"><g transform="matrix(1, 0, 0, 1, 12, 25)"><g clip-path="url(#47d220171e)"><g clip-path="url(#55fea629d9)"><path fill="#14164b" d="M 0.835938 0.496094 L 2.949219 0.496094 L 2.949219 6.839844 L 0.835938 6.839844 Z M 0.835938 0.496094 " fill-opacity="1" fill-rule="nonzero"/></g></g></g></g><g clip-path="url(#7758905060)"><g transform="matrix(1, 0, 0, 1, 12, 33)"><g clip-path="url(#f2f2421477)"><g clip-path="url(#e0ef2460c6)"><path fill="#14164b" d="M 0.835938 0.941406 L 2.949219 0.941406 L 2.949219 7.289062 L 0.835938 7.289062 Z M 0.835938 0.941406 " fill-opacity="1" fill-rule="nonzero"/></g></g></g></g><g clip-path="url(#f1d4a08f43)"><g transform="matrix(1, 0, 0, 1, 23, 25)"><g clip-path="url(#e97dbb1845)"><g clip-path="url(#c14cf5d4fb)"><path fill="#14164b" d="M 0.390625 0.496094 L 2.503906 0.496094 L 2.503906 6.835938 L 0.390625 6.835938 Z M 0.390625 0.496094 " fill-opacity="1" fill-rule="nonzero"/></g></g></g></g><g clip-path="url(#42c1d8ef0c)"><g transform="matrix(1, 0, 0, 1, 23, 33)"><g clip-path="url(#a917ee60f4)"><g clip-path="url(#8170d13921)"><path fill="#14164b" d="M 0.390625 0.941406 L 2.503906 0.941406 L 2.503906 7.285156 L 0.390625 7.285156 Z M 0.390625 0.941406 " fill-opacity="1" fill-rule="nonzero"/></g></g></g></g><g clip-path="url(#98769d2986)"><g transform="matrix(1, 0, 0, 1, 6, 25)"><g clip-path="url(#9e6a12d34b)"><g clip-path="url(#6dbf17ed88)"><path fill="#14164b" d="M 0.5 0.496094 L 2.613281 0.496094 L 2.613281 6.835938 L 0.5 6.835938 Z M 0.5 0.496094 " fill-opacity="1" fill-rule="nonzero"/></g></g></g></g><g clip-path="url(#e6367d1f4f)"><g transform="matrix(1, 0, 0, 1, 6, 33)"><g clip-path="url(#009be7cb61)"><g clip-path="url(#edff176370)"><path fill="#14164b" d="M 0.5 0.941406 L 2.613281 0.941406 L 2.613281 7.285156 L 0.5 7.285156 Z M 0.5 0.941406 " fill-opacity="1" fill-rule="nonzero"/></g></g></g></g><g clip-path="url(#acc177d124)"><g transform="matrix(1, 0, 0, 1, 42, 25)"><g clip-path="url(#52dffa44d4)"><g clip-path="url(#cef3bfe259)"><path fill="#f7c041" d="M 0.472656 0.496094 L 4.703125 0.496094 L 4.703125 6.835938 L 0.472656 6.835938 Z M 0.472656 0.496094 " fill-opacity="1" fill-rule="nonzero"/></g></g></g></g><g clip-path="url(#9bb3221587)"><g transform="matrix(1, 0, 0, 1, 42, 25)"><g clip-path="url(#65ae87ed7f)"><g clip-path="url(#1693550dbc)"><path fill="#14164b" d="M 0.394531 0.496094 L 2.507812 0.496094 L 2.507812 6.835938 L 0.394531 6.835938 Z M 0.394531 0.496094 " fill-opacity="1" fill-rule="nonzero"/></g></g></g></g><g clip-path="url(#adcccb2746)"><g transform="matrix(1, 0, 0, 1, 48, 25)"><g clip-path="url(#ff7a5ff93b)"><g clip-path="url(#3667854591)"><path fill="#f7c041" d="M 0.808594 0.496094 L 5.035156 0.496094 L 5.035156 6.835938 L 0.808594 6.835938 Z M 0.808594 0.496094 " fill-opacity="1" fill-rule="nonzero"/></g></g></g></g><g clip-path="url(#94060cf75c)"><g transform="matrix(1, 0, 0, 1, 48, 25)"><g clip-path="url(#86499625fc)"><g clip-path="url(#7fe11ff81b)"><path fill="#14164b" d="M 0.730469 0.496094 L 2.84375 0.496094 L 2.84375 6.835938 L 0.730469 6.835938 Z M 0.730469 0.496094 " fill-opacity="1" fill-rule="nonzero"/></g></g></g></g><g clip-path="url(#1b8a8e18e9)"><g transform="matrix(1, 0, 0, 1, 48, 33)"><g clip-path="url(#9f1bca0c35)"><g clip-path="url(#e16c04910a)"><path fill="#f77bb7" d="M 0.808594 0.941406 L 5.035156 0.941406 L 5.035156 7.285156 L 0.808594 7.285156 Z M 0.808594 0.941406 " fill-opacity="1" fill-rule="nonzero"/></g></g></g></g><g clip-path="url(#9f185fb377)"><g transform="matrix(1, 0, 0, 1, 48, 33)"><g clip-path="url(#e84820c420)"><g clip-path="url(#ddb4551aff)"><path fill="#14164b" d="M 0.730469 0.941406 L 2.84375 0.941406 L 2.84375 7.285156 L 0.730469 7.285156 Z M 0.730469 0.941406 " fill-opacity="1" fill-rule="nonzero"/></g></g></g></g><g clip-path="url(#a6458e7828)"><g transform="matrix(1, 0, 0, 1, 38, 48)"><g clip-path="url(#b1015466df)"><g clip-path="url(#77c21daea1)"><path fill="#f7c041" d="M 0.25 0.722656 L 4.480469 0.722656 L 4.480469 7.066406 L 0.25 7.066406 Z M 0.25 0.722656 " fill-opacity="1" fill-rule="nonzero"/></g></g></g></g><g clip-path="url(#45b80d3ca8)"><g transform="matrix(1, 0, 0, 1, 38, 48)"><g clip-path="url(#a7b5e0decb)"><g clip-path="url(#12b63c156d)"><path fill="#14164b" d="M 0.171875 0.722656 L 2.285156 0.722656 L 2.285156 7.066406 L 0.171875 7.066406 Z M 0.171875 0.722656 " fill-opacity="1" fill-rule="nonzero"/></g></g></g></g><g clip-path="url(#ae4e554654)"><g transform="matrix(1, 0, 0, 1, 48, 48)"><g clip-path="url(#ba14d0cedf)"><g clip-path="url(#d44678cf3f)"><path fill="#f7c041" d="M 0.808594 0.722656 L 5.035156 0.722656 L 5.035156 7.0625 L 0.808594 7.0625 Z M 0.808594 0.722656 " fill-opacity="1" fill-rule="nonzero"/></g></g></g></g><g clip-path="url(#ae08a91259)"><g transform="matrix(1, 0, 0, 1, 48, 48)"><g clip-path="url(#e57381b872)"><g clip-path="url(#0b0f9ec360)"><path fill="#14164b" d="M 0.730469 0.722656 L 2.84375 0.722656 L 2.84375 7.0625 L 0.730469 7.0625 Z M 0.730469 0.722656 " fill-opacity="1" fill-rule="nonzero"/></g></g></g></g><g clip-path="url(#2cf5dde398)"><g transform="matrix(1, 0, 0, 1, 42, 57)"><g clip-path="url(#a7cd913e67)"><g clip-path="url(#c3d72c0091)"><path fill="#f77bb7" d="M 0.472656 0.167969 L 4.703125 0.167969 L 4.703125 6.507812 L 0.472656 6.507812 Z M 0.472656 0.167969 " fill-opacity="1" fill-rule="nonzero"/></g></g></g></g><g clip-path="url(#fa2ddea816)"><g transform="matrix(1, 0, 0, 1, 42, 57)"><g clip-path="url(#9f5f1c3dcd)"><g clip-path="url(#f38c3391df)"><path fill="#14164b" d="M 0.394531 0.167969 L 2.507812 0.167969 L 2.507812 6.507812 L 0.394531 6.507812 Z M 0.394531 0.167969 " fill-opacity="1" fill-rule="nonzero"/></g></g></g></g><g clip-path="url(#9def808b4e)"><g transform="matrix(1, 0, 0, 1, 48, 57)"><g clip-path="url(#d8e9ba1d80)"><g clip-path="url(#895679887e)"><path fill="#f7c041" d="M 0.808594 0.167969 L 5.035156 0.167969 L 5.035156 6.507812 L 0.808594 6.507812 Z M 0.808594 0.167969 " fill-opacity="1" fill-rule="nonzero"/></g></g></g></g><g clip-path="url(#c918ed47b7)"><g transform="matrix(1, 0, 0, 1, 48, 57)"><g clip-path="url(#2441cb02b8)"><g clip-path="url(#d9b0eaf6f2)"><path fill="#14164b" d="M 0.730469 0.167969 L 2.84375 0.167969 L 2.84375 6.507812 L 0.730469 6.507812 Z M 0.730469 0.167969 " fill-opacity="1" fill-rule="nonzero"/></g></g></g></g><g clip-path="url(#4f939ea5c1)"><g transform="matrix(1, 0, 0, 1, 42, 71)"><g clip-path="url(#23f282afa0)"><g clip-path="url(#be8970f6d0)"><path fill="#f7c041" d="M 0.472656 0.949219 L 4.703125 0.949219 L 4.703125 7.289062 L 0.472656 7.289062 Z M 0.472656 0.949219 " fill-opacity="1" fill-rule="nonzero"/></g></g></g></g><g clip-path="url(#79442f50fa)"><g transform="matrix(1, 0, 0, 1, 42, 71)"><g clip-path="url(#63014abc9c)"><g clip-path="url(#172615ec82)"><path fill="#14164b" d="M 0.394531 0.949219 L 2.507812 0.949219 L 2.507812 7.289062 L 0.394531 7.289062 Z M 0.394531 0.949219 " fill-opacity="1" fill-rule="nonzero"/></g></g></g></g><g clip-path="url(#5e84382d0b)"><g transform="matrix(1, 0, 0, 1, 48, 71)"><g clip-path="url(#de35919e96)"><g clip-path="url(#c0e2096fff)"><path fill="#f7c041" d="M 0.808594 0.949219 L 5.035156 0.949219 L 5.035156 7.289062 L 0.808594 7.289062 Z M 0.808594 0.949219 " fill-opacity="1" fill-rule="nonzero"/></g></g></g></g><g clip-path="url(#ddaea3edfc)"><g transform="matrix(1, 0, 0, 1, 48, 71)"><g clip-path="url(#cb7504b420)"><g clip-path="url(#aa32ca2097)"><path fill="#14164b" d="M 0.730469 0.949219 L 2.84375 0.949219 L 2.84375 7.289062 L 0.730469 7.289062 Z M 0.730469 0.949219 " fill-opacity="1" fill-rule="nonzero"/></g></g></g></g><g clip-path="url(#ce9dfd6cfa)"><g transform="matrix(1, 0, 0, 1, 48, 80)"><g clip-path="url(#b0efd0b558)"><g clip-path="url(#bf13c55267)"><path fill="#f7c041" d="M 0.808594 0.394531 L 5.035156 0.394531 L 5.035156 6.734375 L 0.808594 6.734375 Z M 0.808594 0.394531 " fill-opacity="1" fill-rule="nonzero"/></g></g></g></g><g clip-path="url(#1c6781d445)"><g transform="matrix(1, 0, 0, 1, 48, 80)"><g clip-path="url(#c4ca29edb2)"><g clip-path="url(#9cf8ceee55)"><path fill="#14164b" d="M 0.730469 0.394531 L 2.84375 0.394531 L 2.84375 6.734375 L 0.730469 6.734375 Z M 0.730469 0.394531 " fill-opacity="1" fill-rule="nonzero"/></g></g></g></g><g clip-path="url(#095a04acd9)"><g transform="matrix(1, 0, 0, 1, 6, 48)"><g clip-path="url(#a16b3c3f49)"><g clip-path="url(#ba7c80c584)"><path fill="#f7c041" d="M 0.582031 0.722656 L 4.808594 0.722656 L 4.808594 7.0625 L 0.582031 7.0625 Z M 0.582031 0.722656 " fill-opacity="1" fill-rule="nonzero"/></g></g></g></g><g clip-path="url(#1baef9a07c)"><g transform="matrix(1, 0, 0, 1, 12, 48)"><g clip-path="url(#5be9740535)"><g clip-path="url(#21b51eee89)"><path fill="#f7c041" d="M 0.832031 0.722656 L 9.277344 0.722656 L 9.277344 7.066406 L 0.832031 7.066406 Z M 0.832031 0.722656 " fill-opacity="1" fill-rule="nonzero"/></g></g></g></g><g clip-path="url(#21ef00808b)"><g transform="matrix(1, 0, 0, 1, 6, 57)"><g clip-path="url(#fb8ba1141d)"><g clip-path="url(#118a7fa828)"><path fill="#f7c041" d="M 0.582031 0.167969 L 4.808594 0.167969 L 4.808594 6.507812 L 0.582031 6.507812 Z M 0.582031 0.167969 " fill-opacity="1" fill-rule="nonzero"/></g></g></g></g><g clip-path="url(#c7b30ba9d8)"><g transform="matrix(1, 0, 0, 1, 12, 57)"><g clip-path="url(#71b0d5744b)"><g clip-path="url(#b5bc847f8d)"><path fill="#f77bb7" d="M 0.832031 0.167969 L 9.277344 0.167969 L 9.277344 6.511719 L 0.832031 6.511719 Z M 0.832031 0.167969 " fill-opacity="1" fill-rule="nonzero"/></g></g></g></g><g clip-path="url(#c6a5dcfc26)"><g transform="matrix(1, 0, 0, 1, 23, 48)"><g clip-path="url(#53b3d6cf85)"><g clip-path="url(#feb2b565c6)"><path fill="#f77bb7" d="M 0.386719 0.722656 L 8.835938 0.722656 L 8.835938 7.066406 L 0.386719 7.066406 Z M 0.386719 0.722656 " fill-opacity="1" fill-rule="nonzero"/></g></g></g></g><g clip-path="url(#60213b4094)"><g transform="matrix(1, 0, 0, 1, 12, 48)"><g clip-path="url(#c161d2e9ed)"><g clip-path="url(#bd8c8d5b90)"><path fill="#14164b" d="M 0.835938 0.722656 L 2.949219 0.722656 L 2.949219 7.066406 L 0.835938 7.066406 Z M 0.835938 0.722656 " fill-opacity="1" fill-rule="nonzero"/></g></g></g></g><g clip-path="url(#7d16e13e94)"><g transform="matrix(1, 0, 0, 1, 12, 57)"><g clip-path="url(#ac950f1792)"><g clip-path="url(#17dc7a652a)"><path fill="#14164b" d="M 0.835938 0.167969 L 2.949219 0.167969 L 2.949219 6.515625 L 0.835938 6.515625 Z M 0.835938 0.167969 " fill-opacity="1" fill-rule="nonzero"/></g></g></g></g><g clip-path="url(#6866e68933)"><g transform="matrix(1, 0, 0, 1, 23, 48)"><g clip-path="url(#120b2b5ba5)"><g clip-path="url(#9895a5da67)"><path fill="#14164b" d="M 0.390625 0.722656 L 2.503906 0.722656 L 2.503906 7.0625 L 0.390625 7.0625 Z M 0.390625 0.722656 " fill-opacity="1" fill-rule="nonzero"/></g></g></g></g><g clip-path="url(#6c54ec7b7c)"><g transform="matrix(1, 0, 0, 1, 6, 48)"><g clip-path="url(#ae7c574d13)"><g clip-path="url(#34cc3d0a89)"><path fill="#14164b" d="M 0.5 0.722656 L 2.613281 0.722656 L 2.613281 7.0625 L 0.5 7.0625 Z M 0.5 0.722656 " fill-opacity="1" fill-rule="nonzero"/></g></g></g></g><g clip-path="url(#7e1c39ceb4)"><g transform="matrix(1, 0, 0, 1, 6, 57)"><g clip-path="url(#10897d247c)"><g clip-path="url(#4a59d08e7e)"><path fill="#14164b" d="M 0.5 0.167969 L 2.613281 0.167969 L 2.613281 6.507812 L 0.5 6.507812 Z M 0.5 0.167969 " fill-opacity="1" fill-rule="nonzero"/></g></g></g></g><g clip-path="url(#acc6fd432f)"><g transform="matrix(1, 0, 0, 1, 6, 71)"><g clip-path="url(#58fcc5f675)"><g clip-path="url(#eada6ec6c9)"><path fill="#f7c041" d="M 0.582031 0.949219 L 4.808594 0.949219 L 4.808594 7.289062 L 0.582031 7.289062 Z M 0.582031 0.949219 " fill-opacity="1" fill-rule="nonzero"/></g></g></g></g><g clip-path="url(#48ebb247d9)"><g transform="matrix(1, 0, 0, 1, 12, 71)"><g clip-path="url(#30954ab7d8)"><g clip-path="url(#21e8e22a34)"><path fill="#f7c041" d="M 0.832031 0.949219 L 9.277344 0.949219 L 9.277344 7.292969 L 0.832031 7.292969 Z M 0.832031 0.949219 " fill-opacity="1" fill-rule="nonzero"/></g></g></g></g><g clip-path="url(#79dbe67aeb)"><g transform="matrix(1, 0, 0, 1, 6, 80)"><g clip-path="url(#fe4c51d3a8)"><g clip-path="url(#89ff6a4117)"><path fill="#f7c041" d="M 0.582031 0.394531 L 4.808594 0.394531 L 4.808594 6.734375 L 0.582031 6.734375 Z M 0.582031 0.394531 " fill-opacity="1" fill-rule="nonzero"/></g></g></g></g><g clip-path="url(#43c4236493)"><g transform="matrix(1, 0, 0, 1, 12, 80)"><g clip-path="url(#e2eee7d906)"><g clip-path="url(#3cd8371d12)"><path fill="#f7c041" d="M 0.832031 0.394531 L 9.277344 0.394531 L 9.277344 6.738281 L 0.832031 6.738281 Z M 0.832031 0.394531 " fill-opacity="1" fill-rule="nonzero"/></g></g></g></g><g clip-path="url(#9e264df7d9)"><g transform="matrix(1, 0, 0, 1, 23, 80)"><g clip-path="url(#374f94aacd)"><g clip-path="url(#a19d92fd18)"><path fill="#f77bb7" d="M 0.386719 0.394531 L 8.835938 0.394531 L 8.835938 6.738281 L 0.386719 6.738281 Z M 0.386719 0.394531 " fill-opacity="1" fill-rule="nonzero"/></g></g></g></g><g clip-path="url(#6be2dbb380)"><g transform="matrix(1, 0, 0, 1, 12, 71)"><g clip-path="url(#1aa21503f0)"><g clip-path="url(#46e5590355)"><path fill="#14164b" d="M 0.835938 0.949219 L 2.949219 0.949219 L 2.949219 7.292969 L 0.835938 7.292969 Z M 0.835938 0.949219 " fill-opacity="1" fill-rule="nonzero"/></g></g></g></g><g clip-path="url(#e61c1ba0a8)"><g transform="matrix(1, 0, 0, 1, 12, 80)"><g clip-path="url(#403c37025e)"><g clip-path="url(#401826f863)"><path fill="#14164b" d="M 0.835938 0.394531 L 2.949219 0.394531 L 2.949219 6.738281 L 0.835938 6.738281 Z M 0.835938 0.394531 " fill-opacity="1" fill-rule="nonzero"/></g></g></g></g><g clip-path="url(#8a2101ab79)"><g transform="matrix(1, 0, 0, 1, 23, 80)"><g clip-path="url(#d40f622ba9)"><g clip-path="url(#7ff7e332c0)"><path fill="#14164b" d="M 0.390625 0.394531 L 2.503906 0.394531 L 2.503906 6.734375 L 0.390625 6.734375 Z M 0.390625 0.394531 " fill-opacity="1" fill-rule="nonzero"/></g></g></g></g><g clip-path="url(#1b3c9f1217)"><g transform="matrix(1, 0, 0, 1, 6, 71)"><g clip-path="url(#6d6d9e9da6)"><g clip-path="url(#90483cbd75)"><path fill="#14164b" d="M 0.5 0.949219 L 2.613281 0.949219 L 2.613281 7.289062 L 0.5 7.289062 Z M 0.5 0.949219 " fill-opacity="1" fill-rule="nonzero"/></g></g></g></g><g clip-path="url(#f8c6c0eaf9)"><g transform="matrix(1, 0, 0, 1, 6, 80)"><g clip-path="url(#2c8a0587f9)"><g clip-path="url(#25a161c933)"><path fill="#14164b" d="M 0.5 0.394531 L 2.613281 0.394531 L 2.613281 6.734375 L 0.5 6.734375 Z M 0.5 0.394531 " fill-opacity="1" fill-rule="nonzero"/></g></g></g></g><g clip-path="url(#cb40dba8ba)"><g transform="matrix(1, 0, 0, 1, 6, 95)"><g clip-path="url(#fffbd5c115)"><g clip-path="url(#5e0e57df91)"><path fill="#f7c041" d="M 0.582031 0.175781 L 4.808594 0.175781 L 4.808594 6.515625 L 0.582031 6.515625 Z M 0.582031 0.175781 " fill-opacity="1" fill-rule="nonzero"/></g></g></g></g><g clip-path="url(#9d43cb3603)"><g transform="matrix(1, 0, 0, 1, 12, 95)"><g clip-path="url(#e180605a9d)"><g clip-path="url(#284f9d0c46)"><path fill="#f7c041" d="M 0.832031 0.175781 L 9.277344 0.175781 L 9.277344 6.515625 L 0.832031 6.515625 Z M 0.832031 0.175781 " fill-opacity="1" fill-rule="nonzero"/></g></g></g></g><g clip-path="url(#a6002574d1)"><g transform="matrix(1, 0, 0, 1, 6, 103)"><g clip-path="url(#3714148821)"><g clip-path="url(#119e77515b)"><path fill="#f77bb7" d="M 0.582031 0.621094 L 4.808594 0.621094 L 4.808594 6.960938 L 0.582031 6.960938 Z M 0.582031 0.621094 " fill-opacity="1" fill-rule="nonzero"/></g></g></g></g><g clip-path="url(#951bf755a6)"><g transform="matrix(1, 0, 0, 1, 12, 103)"><g clip-path="url(#a68ad81593)"><g clip-path="url(#3e8e7ec365)"><path fill="#f77bb7" d="M 0.832031 0.621094 L 9.277344 0.621094 L 9.277344 6.960938 L 0.832031 6.960938 Z M 0.832031 0.621094 " fill-opacity="1" fill-rule="nonzero"/></g></g></g></g><g clip-path="url(#a823c3b3fe)"><g transform="matrix(1, 0, 0, 1, 12, 95)"><g clip-path="url(#85a51a23a0)"><g clip-path="url(#d8043a8927)"><path fill="#14164b" d="M 0.835938 0.175781 L 2.949219 0.175781 L 2.949219 6.511719 L 0.835938 6.511719 Z M 0.835938 0.175781 " fill-opacity="1" fill-rule="nonzero"/></g></g></g></g><g clip-path="url(#dafebe3002)"><g transform="matrix(1, 0, 0, 1, 12, 103)"><g clip-path="url(#dad822a488)"><g clip-path="url(#f4b9f96c9b)"><path fill="#14164b" d="M 0.835938 0.621094 L 2.949219 0.621094 L 2.949219 6.960938 L 0.835938 6.960938 Z M 0.835938 0.621094 " fill-opacity="1" fill-rule="nonzero"/></g></g></g></g><g clip-path="url(#a8663a13e4)"><g transform="matrix(1, 0, 0, 1, 6, 95)"><g clip-path="url(#f57d1d9051)"><g clip-path="url(#55df0e0621)"><path fill="#14164b" d="M 0.5 0.175781 L 2.613281 0.175781 L 2.613281 6.515625 L 0.5 6.515625 Z M 0.5 0.175781 " fill-opacity="1" fill-rule="nonzero"/></g></g></g></g><g clip-path="url(#44a43a2c4c)"><g transform="matrix(1, 0, 0, 1, 6, 103)"><g clip-path="url(#4b689bb48a)"><g clip-path="url(#ce40b2f95e)"><path fill="#14164b" d="M 0.5 0.621094 L 2.613281 0.621094 L 2.613281 6.960938 L 0.5 6.960938 Z M 0.5 0.621094 " fill-opacity="1" fill-rule="nonzero"/></g></g></g></g><g clip-path="url(#5513914242)"><g transform="matrix(1, 0, 0, 1, 8, 2)"><g clip-path="url(#01b11bcab9)"><g clip-path="url(#a778d167ba)"><path fill="#f77bb7" d="M 0.613281 0.113281 L 3.050781 0.113281 L 3.050781 2.550781 L 0.613281 2.550781 Z M 0.613281 0.113281 " fill-opacity="1" fill-rule="nonzero"/></g></g></g></g><g clip-path="url(#25a052f700)"><g transform="matrix(1, 0, 0, 1, 23, 57)"><g clip-path="url(#fe90938f18)"><g clip-path="url(#a25f18515e)"><path fill="#f77bb7" d="M 0.386719 0.0078125 L 9.167969 0.0078125 L 9.167969 2.203125 L 0.386719 2.203125 Z M 0.386719 0.0078125 " fill-opacity="1" fill-rule="nonzero"/></g></g></g></g><g clip-path="url(#87fbbb07f8)"><g transform="matrix(1, 0, 0, 1, 33, 38)"><g clip-path="url(#67734e31f9)"><g clip-path="url(#7c9c151379)"><path fill="#f77bb7" d="M 0.949219 0.00390625 L 3.386719 0.00390625 L 3.386719 2.445312 L 0.949219 2.445312 Z M 0.949219 0.00390625 " fill-opacity="1" fill-rule="nonzero"/></g></g></g></g><g clip-path="url(#645d545ef4)"><g transform="matrix(1, 0, 0, 1, 23, 57)"><g clip-path="url(#d6e4101d4c)"><g clip-path="url(#bc16539291)"><path fill="#14164b" d="M 0.390625 0.0078125 L 2.832031 0.0078125 L 2.832031 2.449219 L 0.390625 2.449219 Z M 0.390625 0.0078125 " fill-opacity="1" fill-rule="nonzero"/></g></g></g></g><g clip-path="url(#9f962760d4)"><g transform="matrix(1, 0, 0, 1, 31, 71)"><g clip-path="url(#f7af8c555c)"><g clip-path="url(#28e4925916)"><path fill="#f77bb7" d="M 0.835938 0.789062 L 9.613281 0.789062 L 9.613281 2.984375 L 0.835938 2.984375 Z M 0.835938 0.789062 " fill-opacity="1" fill-rule="nonzero"/></g></g></g></g><g clip-path="url(#11092d372f)"><g transform="matrix(1, 0, 0, 1, 31, 71)"><g clip-path="url(#163f82ea96)"><g clip-path="url(#0048b6f169)"><path fill="#14164b" d="M 0.839844 0.789062 L 3.277344 0.789062 L 3.277344 3.230469 L 0.839844 3.230469 Z M 0.839844 0.789062 " fill-opacity="1" fill-rule="nonzero"/></g></g></g></g><g clip-path="url(#acf6fc0510)"><g transform="matrix(1, 0, 0, 1, 23, 99)"><g clip-path="url(#e5cb438b8b)"><g clip-path="url(#5336ab676c)"><path fill="#f77bb7" d="M 0.386719 0.238281 L 9.167969 0.238281 L 9.167969 2.433594 L 0.386719 2.433594 Z M 0.386719 0.238281 " fill-opacity="1" fill-rule="nonzero"/></g></g></g></g><g clip-path="url(#954c35b9c0)"><g transform="matrix(1, 0, 0, 1, 23, 99)"><g clip-path="url(#e02b0bf700)"><g clip-path="url(#c69298365e)"><path fill="#14164b" d="M 0.390625 0.238281 L 2.832031 0.238281 L 2.832031 2.675781 L 0.390625 2.675781 Z M 0.390625 0.238281 " fill-opacity="1" fill-rule="nonzero"/></g></g></g></g><g clip-path="url(#869006ba5a)"><g transform="matrix(1, 0, 0, 1, 4, 44)"><g clip-path="url(#0fc34d2a38)"><g clip-path="url(#6912946fa8)"><path fill="#f7c041" d="M 0.519531 0.339844 L 51.261719 0.339844 L 51.261719 2.453125 L 0.519531 2.453125 Z M 0.519531 0.339844 " fill-opacity="1" fill-rule="nonzero"/></g></g></g></g><g clip-path="url(#cf7dc6ee43)"><g transform="matrix(1, 0, 0, 1, 4, 21)"><g clip-path="url(#ef301f4892)"><g clip-path="url(#d8896419c7)"><path fill="#f7c041" d="M 0.519531 0.113281 L 51.261719 0.113281 L 51.261719 2.226562 L 0.519531 2.226562 Z M 0.519531 0.113281 " fill-opacity="1" fill-rule="nonzero"/></g></g></g></g><g clip-path="url(#88e520b33b)"><g transform="matrix(1, 0, 0, 1, 12, 21)"><g clip-path="url(#eb6cadd6d0)"><g clip-path="url(#1dc1d34845)"><path fill="#f7c041" d="M 0.890625 0.113281 L 43.335938 0.113281 L 43.335938 2.238281 L 0.890625 2.238281 Z M 0.890625 0.113281 " fill-opacity="1" fill-rule="nonzero"/></g></g></g></g><g clip-path="url(#cddf6f22b3)"><g transform="matrix(1, 0, 0, 1, 12, 44)"><g clip-path="url(#3d709d4d48)"><g clip-path="url(#e53eaa544b)"><path fill="#f7c041" d="M 0.890625 0.339844 L 43.335938 0.339844 L 43.335938 2.460938 L 0.890625 2.460938 Z M 0.890625 0.339844 " fill-opacity="1" fill-rule="nonzero"/></g></g></g></g><g clip-path="url(#3e4eb86bf4)"><g transform="matrix(1, 0, 0, 1, 12, 90)"><g clip-path="url(#ac7da5ddcc)"><g clip-path="url(#9d14dfa5a8)"><path fill="#f7c041" d="M 0.890625 0.792969 L 43.335938 0.792969 L 43.335938 2.914062 L 0.890625 2.914062 Z M 0.890625 0.792969 " fill-opacity="1" fill-rule="nonzero"/></g></g></g></g><g clip-path="url(#4ded842470)"><g transform="matrix(1, 0, 0, 1, 12, 67)"><g clip-path="url(#c0e06d805d)"><g clip-path="url(#c58f9aa47b)"><path fill="#f7c041" d="M 0.890625 0.566406 L 43.332031 0.566406 L 43.332031 2.6875 L 0.890625 2.6875 Z M 0.890625 0.566406 " fill-opacity="1" fill-rule="nonzero"/></g></g></g></g><g clip-path="url(#6ba7690428)"><g transform="matrix(1, 0, 0, 1, 4, 67)"><g clip-path="url(#ee2d1ea132)"><g clip-path="url(#327bbe5bb0)"><path fill="#f7c041" d="M 0.519531 0.566406 L 51.261719 0.566406 L 51.261719 2.679688 L 0.519531 2.679688 Z M 0.519531 0.566406 " fill-opacity="1" fill-rule="nonzero"/></g></g></g></g><g clip-path="url(#71cbec20b5)"><g transform="matrix(1, 0, 0, 1, 4, 90)"><g clip-path="url(#27fcdd3924)"><g clip-path="url(#effbb39753)"><path fill="#f7c041" d="M 0.519531 0.792969 L 51.261719 0.792969 L 51.261719 2.90625 L 0.519531 2.90625 Z M 0.519531 0.792969 " fill-opacity="1" fill-rule="nonzero"/></g></g></g></g><g clip-path="url(#097f37cf00)"><g transform="matrix(1, 0, 0, 1, 23, 21)"><g clip-path="url(#448449334c)"><g clip-path="url(#b7189509c6)"><path fill="#f7c041" d="M 0.535156 0.113281 L 32.253906 0.113281 L 32.253906 2.226562 L 0.535156 2.226562 Z M 0.535156 0.113281 " fill-opacity="1" fill-rule="nonzero"/></g></g></g></g><g clip-path="url(#89aa783f0e)"><g transform="matrix(1, 0, 0, 1, 23, 44)"><g clip-path="url(#7772d80cd8)"><g clip-path="url(#fc8e588b52)"><path fill="#f7c041" d="M 0.535156 0.339844 L 32.253906 0.339844 L 32.253906 2.453125 L 0.535156 2.453125 Z M 0.535156 0.339844 " fill-opacity="1" fill-rule="nonzero"/></g></g></g></g><g clip-path="url(#4da8d28618)"><g transform="matrix(1, 0, 0, 1, 23, 67)"><g clip-path="url(#51f7c0e8da)"><g clip-path="url(#ed12ceef4b)"><path fill="#f7c041" d="M 0.535156 0.566406 L 32.25 0.566406 L 32.25 2.679688 L 0.535156 2.679688 Z M 0.535156 0.566406 " fill-opacity="1" fill-rule="nonzero"/></g></g></g></g><g clip-path="url(#b36ae0438d)"><g transform="matrix(1, 0, 0, 1, 23, 90)"><g clip-path="url(#6869d14217)"><g clip-path="url(#9f88bcf96d)"><path fill="#f7c041" d="M 0.535156 0.792969 L 32.253906 0.792969 L 32.253906 2.90625 L 0.535156 2.90625 Z M 0.535156 0.792969 " fill-opacity="1" fill-rule="nonzero"/></g></g></g></g><g clip-path="url(#4016894477)"><g transform="matrix(1, 0, 0, 1, 2, 42)"><g clip-path="url(#26f00158ce)"><g clip-path="url(#4920b86768)"><path fill="#14164b" d="M 0.324219 0.230469 L 55.460938 0.230469 L 55.460938 2.351562 L 0.324219 2.351562 Z M 0.324219 0.230469 " fill-opacity="1" fill-rule="nonzero"/></g></g></g></g><g clip-path="url(#c02d337b96)"><g transform="matrix(1, 0, 0, 1, 46, 95)"><g clip-path="url(#162b58dd77)"><g clip-path="url(#4e9603f095)"><path fill="#f7c041" d="M 0.617188 0.015625 L 3.054688 0.015625 L 3.054688 2.453125 L 0.617188 2.453125 Z M 0.617188 0.015625 " fill-opacity="1" fill-rule="nonzero"/></g></g></g></g><g clip-path="url(#98d496e0cc)"><g transform="matrix(1, 0, 0, 1, 50, 95)"><g clip-path="url(#197154f22d)"><g clip-path="url(#5c140d3882)"><path fill="#f7c041" d="M 0.839844 0.015625 L 3.28125 0.015625 L 3.28125 2.453125 L 0.839844 2.453125 Z M 0.839844 0.015625 " fill-opacity="1" fill-rule="nonzero"/></g></g></g></g><g clip-path="url(#d5a67af88b)"><g transform="matrix(1, 0, 0, 1, 44, 97)"><g clip-path="url(#2116b8adfe)"><g clip-path="url(#714368b0f4)"><path fill="#f7c041" d="M 0.507812 0.125 L 2.945312 0.125 L 2.945312 2.566406 L 0.507812 2.566406 Z M 0.507812 0.125 " fill-opacity="1" fill-rule="nonzero"/></g></g></g></g><g clip-path="url(#c864fef5c2)"><g transform="matrix(1, 0, 0, 1, 48, 97)"><g clip-path="url(#08430e81ef)"><g clip-path="url(#48a3fbbd6f)"><path fill="#f7c041" d="M 0.730469 0.125 L 3.167969 0.125 L 3.167969 2.566406 L 0.730469 2.566406 Z M 0.730469 0.125 " fill-opacity="1" fill-rule="nonzero"/></g></g></g></g><g clip-path="url(#b14dcf9c45)"><g transform="matrix(1, 0, 0, 1, 42, 95)"><g clip-path="url(#d5b6959f7a)"><g clip-path="url(#5487db4329)"><path fill="#f7c041" d="M 0.394531 0.015625 L 2.835938 0.015625 L 2.835938 2.453125 L 0.394531 2.453125 Z M 0.394531 0.015625 " fill-opacity="1" fill-rule="nonzero"/></g></g></g></g><g clip-path="url(#7325e424e5)"><g transform="matrix(1, 0, 0, 1, 42, 99)"><g clip-path="url(#69dc94dffb)"><g clip-path="url(#18ba225caf)"><path fill="#f7c041" d="M 0.394531 0.238281 L 2.835938 0.238281 L 2.835938 2.675781 L 0.394531 2.675781 Z M 0.394531 0.238281 " fill-opacity="1" fill-rule="nonzero"/></g></g></g></g><g clip-path="url(#2f293978ee)"><g transform="matrix(1, 0, 0, 1, 46, 99)"><g clip-path="url(#4d9bed64e2)"><g clip-path="url(#af30b4fd19)"><path fill="#f7c041" d="M 0.617188 0.238281 L 3.054688 0.238281 L 3.054688 2.675781 L 0.617188 2.675781 Z M 0.617188 0.238281 " fill-opacity="1" fill-rule="nonzero"/></g></g></g></g><g clip-path="url(#fdcbc4f622)"><g transform="matrix(1, 0, 0, 1, 50, 99)"><g clip-path="url(#97c683022c)"><g clip-path="url(#1953bc5d3a)"><path fill="#f7c041" d="M 0.839844 0.238281 L 3.28125 0.238281 L 3.28125 2.675781 L 0.839844 2.675781 Z M 0.839844 0.238281 " fill-opacity="1" fill-rule="nonzero"/></g></g></g></g><g clip-path="url(#915989a967)"><g transform="matrix(1, 0, 0, 1, 42, 103)"><g clip-path="url(#5282adeb9a)"><g clip-path="url(#6bd8dd3ed9)"><path fill="#f7c041" d="M 0.394531 0.460938 L 2.835938 0.460938 L 2.835938 2.902344 L 0.394531 2.902344 Z M 0.394531 0.460938 " fill-opacity="1" fill-rule="nonzero"/></g></g></g></g><g clip-path="url(#1a0e29e0f5)"><g transform="matrix(1, 0, 0, 1, 42, 107)"><g clip-path="url(#0399e1ee98)"><g clip-path="url(#86768fb090)"><path fill="#f7c041" d="M 0.394531 0.683594 L 2.835938 0.683594 L 2.835938 3.121094 L 0.394531 3.121094 Z M 0.394531 0.683594 " fill-opacity="1" fill-rule="nonzero"/></g></g></g></g><g clip-path="url(#f6b2838add)"><g transform="matrix(1, 0, 0, 1, 46, 103)"><g clip-path="url(#a68c9c7c68)"><g clip-path="url(#c7fe0fd62e)"><path fill="#f7c041" d="M 0.617188 0.460938 L 3.054688 0.460938 L 3.054688 2.898438 L 0.617188 2.898438 Z M 0.617188 0.460938 " fill-opacity="1" fill-rule="nonzero"/></g></g></g></g><g clip-path="url(#432d41da07)"><g transform="matrix(1, 0, 0, 1, 46, 107)"><g clip-path="url(#89522c7353)"><g clip-path="url(#e77e9f97e7)"><path fill="#f7c041" d="M 0.617188 0.683594 L 3.054688 0.683594 L 3.054688 3.121094 L 0.617188 3.121094 Z M 0.617188 0.683594 " fill-opacity="1" fill-rule="nonzero"/></g></g></g></g><g clip-path="url(#083de8b8fc)"><g transform="matrix(1, 0, 0, 1, 50, 103)"><g clip-path="url(#5d86a14888)"><g clip-path="url(#2deff1f044)"><path fill="#f7c041" d="M 0.839844 0.460938 L 3.28125 0.460938 L 3.28125 2.902344 L 0.839844 2.902344 Z M 0.839844 0.460938 " fill-opacity="1" fill-rule="nonzero"/></g></g></g></g><g clip-path="url(#83aeeb35a7)"><g transform="matrix(1, 0, 0, 1, 50, 107)"><g clip-path="url(#ac7ee6949d)"><g clip-path="url(#c58e805e34)"><path fill="#f7c041" d="M 0.839844 0.683594 L 3.28125 0.683594 L 3.28125 3.121094 L 0.839844 3.121094 Z M 0.839844 0.683594 " fill-opacity="1" fill-rule="nonzero"/></g></g></g></g></svg>