<svg id="Layer_1" data-name="Layer 1" xmlns="http://www.w3.org/2000/svg" viewBox="0 0 200 51"><defs><style>.cls-1{fill:#fff;}</style></defs><title>Artboard 1</title><path class="cls-1" d="M25.64,35.75,39.22,16.21q4.83,4.91,9.67,9.79-4.8-11.78-9.62-23.56ZM183.07,48.57a15,15,0,0,0,8.08,2.17c5.36,0,8.65-2.35,8.65-6,0-7.57-11.8-4.09-11.8-8,0-1.27,1.29-2.18,4-2.18A10.34,10.34,0,0,1,197.48,36l1.71-3.44A15,15,0,0,0,192,30.92c-5.15,0-8.4,2.39-8.4,6,0,7.72,11.8,4.24,11.8,7.94,0,1.34-1.18,2.13-4,2.13a12.76,12.76,0,0,1-6.65-1.91Zm-17.52-9.31h10.83a5.22,5.22,0,0,0-5.4-4.71,5.3,5.3,0,0,0-5.43,4.71m15,3h-15c.54,2.83,2.86,4.64,6.19,4.64A6.81,6.81,0,0,0,177,44.8l2.4,2.79a9.64,9.64,0,0,1-7.69,3.15c-6.4,0-10.55-4.17-10.55-9.93A9.56,9.56,0,0,1,171,30.92c5.58,0,9.65,3.95,9.65,10,0,.36,0,.91-.07,1.34m-39.05,6.31a15.05,15.05,0,0,0,8.08,2.17c5.36,0,8.65-2.36,8.65-6,0-7.57-11.8-4.09-11.8-8,0-1.27,1.29-2.18,4-2.18A10.34,10.34,0,0,1,155.92,36l1.71-3.44a15,15,0,0,0-7.15-1.67c-5.15,0-8.4,2.39-8.4,6,0,7.72,11.8,4.24,11.8,7.94,0,1.34-1.18,2.13-4,2.13a12.65,12.65,0,0,1-6.65-1.92Zm-2.39-17.65c-3.18,0-5.5,1-6.79,3V31.14h-4.25V50.48h4.46V41.1c0-4,2.15-6,5.55-6a5.75,5.75,0,0,1,1,.11Zm-21.2.22v9.78c0,3.88-2.11,5.83-5.22,5.83-2.83,0-4.47-1.66-4.47-5.18V31.14h-4.47v11c0,5.83,3.33,8.55,8.22,8.55A7.74,7.74,0,0,0,118.13,48v2.46h4.26V31.14ZM95.14,40.81c0-3.69-2.43-6.05-5.69-6.05s-5.65,2.36-5.65,6.05,2.43,6,5.65,6,5.69-2.35,5.69-6m-15.84,0c0-5.79,4.29-9.89,10.15-9.89S99.64,35,99.64,40.81s-4.25,9.93-10.19,9.93S79.3,46.61,79.3,40.81m-21,0c0,5.8,4.29,9.93,10.33,9.93,3.72,0,6.69-1.63,8.15-4.53l-3.43-2a5.37,5.37,0,0,1-4.75,2.68c-3.29,0-5.8-2.28-5.8-6s2.51-6.05,5.8-6.05a5.37,5.37,0,0,1,4.75,2.68l3.43-2c-1.46-2.93-4.43-4.49-8.15-4.49-6,0-10.33,4.1-10.33,9.89m80.85-14.67H145V5.34h8.09V.5H131V5.34h8.09Zm-31-2.53c2.24,1.76,6.29,3,10.3,3,7.23,0,10.73-3.66,10.73-7.95,0-9.41-14.71-6.15-14.71-10.88,0-1.61,1.34-2.93,4.81-2.93a14.11,14.11,0,0,1,7,2l1.81-4.51A16.81,16.81,0,0,0,119.27.06c-7.2,0-10.67,3.63-10.67,8,0,9.52,14.71,6.22,14.71,11,0,1.58-1.4,2.75-4.88,2.75a14.76,14.76,0,0,1-8.34-2.67Zm-17-2.23V15.45h11.74V10.83H91.12V5.26h13.3V.5H85.3V26.14h19.59V21.38Zm-15-2.86c0-2.16-1.62-3.18-4.66-3.18H64.68v6.33h6.83c3,0,4.66-1,4.66-3.15M64.68,5v6H70.5c2.85,0,4.41-1,4.41-3S73.35,5,70.5,5ZM82.06,19.15c0,4.43-3.47,7-10.12,7H58.86V.5H71.22c6.33,0,9.58,2.68,9.58,6.67a6.18,6.18,0,0,1-3.36,5.64,6.31,6.31,0,0,1,4.62,6.34"/><path class="cls-1" d="M14.23,50.49,34.67.52-.2,15.14l20.51,0q-3,17.66-6.08,35.32"/></svg>